<?xml version="1.0" standalone="no"?>
<!DOCTYPE svg PUBLIC "-//W3C//DTD SVG 20010904//EN"
 "http://www.w3.org/TR/2001/REC-SVG-20010904/DTD/svg10.dtd">
<svg version="1.0" xmlns="http://www.w3.org/2000/svg"
 width="668.000000pt" height="785.000000pt" viewBox="0 0 668.000000 785.000000"
 preserveAspectRatio="xMidYMid meet">

<g transform="translate(0.000000,785.000000) scale(0.100000,-0.100000)"
fill="#000000" stroke="none">
<path d="M0 6510 c0 -1268 1 -1341 18 -1346 9 -3 45 -19 78 -35 123 -58 244
-227 244 -340 0 -25 4 -28 43 -34 23 -4 60 -5 82 -3 l40 3 -3 53 c-3 43 -1 52
13 52 9 0 37 11 63 25 26 14 59 25 74 25 30 0 35 9 17 27 -16 16 -1 160 17
160 8 0 14 -6 14 -14 0 -17 76 -18 83 0 3 6 4 -4 1 -23 -3 -25 -2 -30 4 -15
17 39 21 -73 4 -116 -15 -39 -32 -52 -32 -24 0 8 -4 15 -10 15 -5 0 -10 -7
-10 -15 0 -8 4 -15 9 -15 12 0 20 -35 11 -50 -6 -9 -10 -8 -14 6 -3 10 -3 1
-1 -21 5 -49 -20 -146 -27 -105 -4 18 -5 15 -5 -10 0 -19 -1 -48 -2 -65 -2
-28 -3 -29 -11 -7 -5 12 -14 22 -20 22 -15 0 -12 -16 5 -30 8 -7 15 -24 16
-39 0 -14 15 33 34 104 60 233 141 437 251 636 47 85 51 94 31 83 -7 -4 -9 -3
-4 2 5 5 14 9 20 9 5 0 12 6 15 14 3 9 0 11 -8 6 -9 -5 -11 -4 -6 4 4 6 11 9
16 6 4 -3 22 18 39 45 34 55 37 65 19 54 -9 -5 -9 -3 1 9 7 9 17 15 21 12 11
-7 121 145 113 157 -3 6 -1 8 4 5 6 -4 48 35 94 85 46 50 127 130 179 176 52
47 95 88 95 93 0 4 4 11 9 16 5 5 6 3 2 -4 -16 -28 9 -12 104 68 17 14 19 19
8 15 -25 -7 -22 1 3 15 15 8 19 8 15 0 -13 -20 3 -12 127 66 313 196 697 331
1080 378 208 26 584 16 755 -21 30 -6 32 -5 32 22 0 16 7 128 15 249 8 121 15
244 15 272 0 50 -1 53 -34 67 -18 8 -46 31 -62 52 -23 30 -29 47 -28 88 0 30
7 61 17 77 9 14 14 29 10 33 -5 4 -3 7 2 5 6 -1 31 8 57 20 35 16 57 20 83 15
84 -15 140 -85 132 -163 -6 -55 -32 -90 -84 -116 l-41 -20 -6 -90 c-3 -49 -12
-188 -19 -307 l-12 -217 95 -21 c237 -52 560 -183 789 -320 88 -53 96 -56 86
-40 -10 16 1 11 16 -7 12 -14 12 -16 -1 -9 -8 4 -1 -4 15 -18 32 -28 55 -35
36 -12 -9 10 -9 16 -1 21 6 4 14 4 17 1 4 -3 0 -6 -7 -6 -10 0 -9 -4 3 -17 8
-10 16 -22 16 -26 0 -4 32 -32 70 -62 l69 -55 95 102 c93 100 96 102 115 85
18 -17 27 -71 10 -60 -5 2 -43 -33 -87 -79 -65 -69 -77 -86 -69 -101 6 -12 16
-16 26 -12 9 3 13 3 9 -1 -9 -10 13 -35 24 -28 5 3 8 1 7 -3 -2 -5 39 -54 91
-109 52 -54 90 -92 86 -84 -5 8 -4 11 0 7 5 -4 10 -14 11 -22 1 -8 19 -34 40
-59 38 -45 38 -46 50 -24 12 22 12 22 11 -4 -1 -14 -5 -24 -9 -21 -14 8 -8 -8
13 -38 18 -26 23 -28 37 -17 15 12 16 11 3 -5 -12 -16 -12 -20 3 -35 14 -14
16 -14 11 -2 -3 9 0 24 8 33 12 17 13 17 13 -2 0 -11 -4 -17 -8 -15 -4 3 -6
-8 -4 -24 2 -16 29 -67 60 -114 30 -47 79 -134 107 -194 29 -60 54 -111 55
-113 2 -2 52 15 111 38 l108 42 -2 72 c-1 40 -2 78 -2 85 -1 8 -6 10 -13 6 -7
-4 -10 -3 -5 1 4 5 18 10 30 11 12 2 16 0 10 -2 -7 -3 -13 -12 -13 -21 0 -9
13 -1 33 21 38 40 70 51 133 43 53 -6 104 -48 123 -100 8 -24 10 -26 7 -7 -2
14 -6 32 -10 40 -4 11 -1 16 11 18 49 5 116 20 103 22 -8 1 1 6 20 10 32 7 31
8 -20 9 -58 2 -121 20 -70 19 14 0 51 -3 83 -7 45 -6 57 -4 57 7 0 7 -5 10
-12 6 -7 -4 -8 -3 -4 4 9 15 12 15 29 -3 13 -13 16 -10 21 20 17 89 117 221
200 266 l46 24 0 1062 0 1063 -3340 0 -3340 0 0 -1340z m5755 1163 c102 -31
199 -113 244 -206 13 -27 28 -82 34 -122 l11 -72 61 5 c122 9 221 -44 277
-150 31 -59 31 -175 1 -233 -38 -72 -109 -126 -186 -140 l-38 -7 4 -162 c2
-88 8 -175 12 -193 6 -27 3 -34 -18 -48 -20 -13 -30 -14 -46 -5 -29 15 -38 56
-17 79 13 15 16 44 16 174 l0 157 -62 0 -63 0 3 -241 c3 -194 6 -244 18 -256
42 -42 -14 -107 -69 -78 -14 7 -28 11 -30 8 -3 -2 -1 13 3 34 5 20 14 39 19
41 7 2 11 86 11 248 l0 244 -65 0 -65 0 0 -319 c0 -283 2 -323 17 -349 14 -25
15 -35 5 -56 -16 -36 -65 -36 -88 -1 -15 23 -15 27 -1 49 13 19 16 76 19 350
l3 326 -62 0 -63 0 0 -181 c0 -147 3 -183 15 -195 37 -37 -2 -101 -53 -87 -21
5 -24 12 -37 76 -2 9 1 14 6 11 15 -9 17 11 23 199 l6 177 -65 0 c-55 0 -65
-3 -65 -17 -1 -10 -1 -125 0 -257 1 -187 4 -243 15 -260 30 -45 -38 -101 -81
-65 -16 13 -19 52 -5 77 5 9 11 131 13 270 l4 252 -58 0 -58 0 0 -163 c0 -108
4 -167 11 -174 15 -15 3 -60 -19 -72 -25 -13 -66 8 -70 37 -2 12 4 32 12 44
13 18 16 53 16 175 l0 153 -75 0 c-105 0 -175 28 -242 96 -87 88 -104 201 -49
320 50 108 143 167 265 170 l75 2 11 53 c23 114 93 202 207 260 96 49 201 56
313 22z m-3522 -105 c-4 -35 -7 -238 -6 -451 1 -292 -2 -387 -10 -384 -7 3
-96 39 -199 81 -212 85 -649 270 -690 291 -27 13 -29 13 -43 -14 -68 -133
-297 -134 -365 -1 -36 71 -21 180 33 238 79 85 243 81 308 -7 12 -16 27 -27
32 -24 6 3 7 1 4 -5 -4 -5 -4 -19 0 -30 7 -18 33 -8 338 120 460 193 589 247
598 247 4 1 4 -27 0 -61z m-1984 -454 c97 -42 226 -98 286 -124 228 -100 291
-124 313 -122 12 1 22 -4 22 -11 -1 -43 -15 -56 -113 -103 -56 -26 -190 -90
-297 -142 -287 -139 -403 -193 -407 -189 -1 2 4 55 12 117 18 135 18 290 2
498 -7 86 -9 152 -4 152 5 0 89 -34 186 -76z m898 -476 c-2 -13 -4 -3 -4 22 0
25 2 35 4 23 2 -13 2 -33 0 -45z m3468 -278 c3 -6 -1 -7 -9 -4 -18 7 -21 14
-7 14 6 0 13 -4 16 -10z m1590 0 c3 -5 1 -10 -4 -10 -6 0 -11 5 -11 10 0 6 2
10 4 10 3 0 8 -4 11 -10z m-650 -40 c3 -5 1 -10 -4 -10 -6 0 -11 5 -11 10 0 6
2 10 4 10 3 0 8 -4 11 -10z m-4498 -92 c-3 -8 -6 -5 -6 6 -1 11 2 17 5 13 3
-3 4 -12 1 -19z m4093 -2 c0 -2 -8 -10 -17 -17 -16 -13 -17 -12 -4 4 13 16 21
21 21 13z m221 -13 c13 -16 12 -17 -3 -4 -10 7 -18 15 -18 17 0 8 8 3 21 -13z
m-3831 -53 l0 -49 -440 2 -440 2 0 48 0 47 440 0 440 0 0 -50z m4507 36 c-3
-7 0 -20 6 -27 10 -11 9 -11 -5 0 -15 11 -15 41 -1 41 3 0 3 -6 0 -14z m-670
-35 c0 -11 -5 -18 -9 -15 -4 3 -5 11 -1 19 7 21 12 19 10 -4z m590 -17 c-3 -3
-12 -4 -19 -1 -8 3 -5 6 6 6 11 1 17 -2 13 -5z m-91 -104 c0 -12 -4 -16 -9
-11 -5 5 -6 14 -3 20 10 15 12 14 12 -9z m-706 -76 c0 -8 -19 -13 -24 -6 -3 5
1 9 9 9 8 0 15 -2 15 -3z m15 -64 c10 -11 22 -17 28 -13 6 4 7 1 2 -6 -5 -9
-14 -6 -34 11 -14 13 -28 24 -30 26 -2 1 0 2 6 2 5 0 18 -9 28 -20z m52 -55
c0 -8 -4 -12 -9 -9 -5 3 -6 10 -3 15 9 13 12 11 12 -6z m38 -42 l18 -28 -21
19 c-12 11 -22 23 -22 28 0 14 7 9 25 -19z m61 -5 c3 -4 2 -14 -3 -23 -8 -14
-11 -13 -21 9 -9 19 -8 24 3 22 8 -1 17 -5 21 -8z m-4136 -78 c-6 -11 -13 -20
-16 -20 -2 0 0 9 6 20 6 11 13 20 16 20 2 0 0 -9 -6 -20z m4187 13 c-4 -3 0
-18 9 -32 l17 -26 -27 24 c-26 25 -37 17 -14 -9 7 -8 4 -7 -7 3 -20 18 -20 18
-1 33 20 14 35 19 23 7z m26 -8 c-3 -9 -8 -14 -10 -11 -3 3 -2 9 2 15 9 16 15
13 8 -4z m-4237 -80 c-36 -47 -43 -45 -8 4 15 21 29 37 31 35 2 -2 -8 -19 -23
-39z m-57 -15 c11 -24 11 -24 -3 -6 -9 11 -16 24 -16 30 0 12 5 7 19 -24z
m-49 -70 c0 -5 -5 -10 -11 -10 -5 0 -7 5 -4 10 3 6 8 10 11 10 2 0 4 -4 4 -10z
m-13 -71 c2 -16 -1 -19 -9 -11 -5 5 -7 15 -4 21 10 15 12 14 13 -10z m5360
-41 c-3 -8 -6 -5 -6 6 -1 11 2 17 5 13 3 -3 4 -12 1 -19z m-838 -48 c4 0 16
-7 27 -15 19 -14 18 -14 -3 -15 -22 0 -54 44 -52 72 0 7 5 1 11 -14 5 -16 13
-28 17 -28z m-4611 -5 c-6 -14 -13 -23 -15 -21 -5 5 15 46 22 46 3 0 -1 -11
-7 -25z m5007 18 c-11 -3 -30 -14 -41 -25 -15 -13 -24 -16 -29 -8 -4 6 -4 14
-1 17 3 4 6 1 6 -7 0 -10 3 -10 15 0 11 9 12 15 5 20 -6 4 6 7 27 7 21 0 29
-2 18 -4z m195 -11 c3 -4 14 -8 25 -9 19 -1 19 -1 1 12 -18 13 -18 14 2 12 12
0 19 -7 17 -17 -1 -11 10 -17 44 -21 l46 -7 -50 3 c-57 3 -67 6 -115 29 -34
16 -34 17 -5 11 16 -4 32 -10 35 -13z m-5179 -29 c-12 -20 -14 -14 -5 12 4 9
9 14 11 11 3 -2 0 -13 -6 -23z m4982 8 c-9 -11 -21 -17 -26 -14 -6 3 -2 12 8
20 27 19 37 16 18 -6z m-291 -78 c10 3 18 0 18 -6 0 -7 5 -5 10 3 6 10 10 11
10 3 0 -7 5 -13 10 -13 6 0 9 3 9 8 -6 34 2 42 41 42 39 0 40 -1 40 -36 0 -34
-18 -64 -39 -64 -5 0 -15 -8 -20 -17 -6 -10 -11 -12 -11 -5 0 6 -9 12 -19 12
-11 0 -23 5 -26 10 -3 6 -10 10 -16 10 -5 0 -9 -4 -9 -10 0 -5 7 -10 15 -10 8
0 15 -7 15 -16 0 -10 5 -14 15 -10 9 3 23 -3 31 -13 10 -11 25 -17 38 -14 11
2 4 -4 -17 -13 -30 -13 -40 -14 -52 -4 -8 7 -12 16 -9 21 3 5 -3 9 -13 9 -10
0 -28 16 -41 36 -13 20 -19 33 -14 30 6 -4 9 4 7 19 -3 31 -11 40 -20 26 -3
-6 -1 -11 4 -11 6 0 11 -4 11 -10 0 -21 -17 -9 -32 23 -15 31 -15 34 1 44 13
9 19 5 31 -19 10 -20 20 -28 32 -25z m-4726 -4 c-9 -13 -16 -19 -16 -13 0 5 5
15 12 22 8 8 8 15 -2 29 -13 17 -13 17 4 1 17 -15 17 -18 2 -39z m4951 -6 c-3
-10 -5 -4 -5 12 0 17 2 24 5 18 2 -7 2 -21 0 -30z m-2 -33 c-3 -5 -12 -10 -18
-10 -7 0 -6 4 3 10 19 12 23 12 15 0z m-45 -29 l31 -19 -32 -11 c-38 -13 -50
-6 -23 14 17 13 17 14 2 15 -10 0 -18 5 -18 10 0 14 5 13 40 -9z m46 -37 c-3
-8 -11 -14 -18 -13 -10 0 -10 2 0 6 6 2 13 17 13 31 1 18 3 21 6 9 3 -10 2
-25 -1 -33z m-5023 -39 c-9 -19 -18 -33 -21 -31 -4 5 26 66 33 66 3 0 -3 -16
-12 -35z m4986 21 c-2 -2 -32 -15 -66 -29 -45 -19 -65 -22 -69 -14 -4 7 -4 9
0 5 4 -3 33 5 64 18 53 21 81 30 71 20z m-149 -50 c0 -18 -2 -17 -15 8 -19 36
-19 42 0 26 8 -7 15 -22 15 -34z m-5103 -88 c-2 -13 -4 -3 -4 22 0 25 2 35 4
23 2 -13 2 -33 0 -45z m209 -19 c-11 -24 -15 -28 -15 -14 -1 34 11 67 21 57 5
-5 2 -23 -6 -43z m-466 -181 c0 -16 -3 -19 -11 -11 -6 6 -8 16 -5 22 11 17 16
13 16 -11z m97 -40 c-2 -13 -4 -3 -4 22 0 25 2 35 4 23 2 -13 2 -33 0 -45z
m-14 -30 c60 -2 60 -2 13 -5 -73 -6 -96 2 -88 29 l7 23 3 -22 c3 -21 9 -23 65
-25z"/>
<path d="M5730 5260 c-9 -6 -10 -10 -3 -10 6 0 15 5 18 10 8 12 4 12 -15 0z"/>
<path d="M2955 6605 c-154 -22 -175 -26 -170 -35 3 -4 -3 -6 -13 -3 -26 6
-170 -29 -337 -82 -156 -50 -472 -202 -467 -224 1 -7 -2 -10 -8 -6 -5 3 -20 1
-32 -6 -46 -25 -217 -141 -230 -157 -11 -13 -11 -14 1 -7 9 5 12 4 7 -3 -4 -6
-12 -9 -19 -7 -7 3 -37 -18 -67 -46 -30 -28 -48 -47 -40 -43 12 6 13 5 4 -7
-6 -8 -10 -25 -8 -38 4 -19 2 -22 -10 -12 -10 9 -16 8 -25 -2 -6 -8 -7 -18 -3
-23 4 -4 -1 -2 -10 5 -19 14 -23 23 -10 19 10 -4 47 25 49 40 6 28 -21 6 -134
-111 -128 -133 -250 -277 -235 -277 6 0 13 8 17 18 6 15 8 14 16 -5 4 -13 14
-23 21 -22 10 0 10 2 1 6 -7 2 -13 9 -13 14 0 4 7 6 15 3 8 -4 15 -1 15 6 0 6
-4 9 -9 5 -12 -7 -11 36 2 52 5 7 14 10 20 6 5 -3 8 -2 5 3 -3 5 0 14 7 21 10
10 14 9 19 -3 3 -9 1 -12 -4 -9 -6 3 -10 2 -10 -4 0 -5 9 -9 19 -8 19 1 18 18
-3 47 -6 8 2 4 18 -8 22 -17 31 -20 37 -10 5 7 1 20 -8 30 -18 20 -18 20 19
22 38 2 43 11 23 43 -10 15 -12 22 -4 16 18 -18 56 -16 62 2 4 8 2 17 -4 20
-5 4 -7 11 -4 16 4 5 1 9 -5 9 -6 0 -8 5 -4 11 4 8 9 7 15 -2 4 -7 5 -17 2
-23 -3 -5 -1 -6 5 -2 7 4 12 14 12 22 0 8 4 13 10 9 5 -3 6 -13 3 -23 -5 -14
-3 -15 8 -4 18 17 56 15 63 -4 3 -8 2 -12 -4 -9 -6 3 -10 -3 -10 -15 0 -12 -4
-19 -9 -15 -5 3 -12 1 -16 -5 -3 -5 -1 -10 6 -10 10 0 10 -3 1 -12 -7 -7 -12
-21 -12 -33 0 -12 -5 -26 -10 -31 -11 -11 -4 -44 9 -44 4 0 6 -13 3 -30 -3
-18 0 -30 7 -30 17 0 13 -26 -6 -41 -15 -12 -16 -12 -9 6 4 11 3 16 -1 11 -4
-4 -8 -19 -8 -32 l-1 -24 31 30 c17 17 36 30 43 30 6 0 10 6 8 13 -1 6 -1 9 1
4 3 -4 10 -4 15 -1 7 4 8 2 4 -4 -4 -7 -2 -12 5 -12 8 0 8 -4 2 -12 -6 -7 -13
-22 -16 -33 -7 -20 -7 -20 8 0 11 14 18 16 23 8 4 -7 26 -11 54 -9 40 2 45 1
30 -10 -9 -8 -12 -14 -5 -14 6 0 18 7 27 15 8 8 24 15 35 15 12 0 21 4 21 8 0
5 -20 9 -45 10 -27 0 -57 8 -73 18 -15 10 -31 17 -35 16 -5 -1 -6 2 -2 8 3 5
-1 20 -9 32 -33 47 -9 140 45 180 13 10 44 22 69 27 45 9 45 9 9 10 -23 1 -49
-8 -72 -24 -21 -13 -39 -20 -42 -14 -4 5 -10 7 -15 4 -4 -3 -15 -2 -24 1 -26
10 -16 72 14 88 14 7 24 18 23 24 -2 7 4 12 12 12 21 0 19 34 -4 54 -15 13
-20 14 -24 4 -2 -7 -7 -10 -11 -7 -3 3 5 16 18 28 16 15 26 19 31 12 3 -7 3
-11 -2 -10 -20 4 -23 -2 -8 -17 9 -9 33 -17 53 -18 33 -1 37 2 43 29 4 17 7
24 8 17 1 -10 5 -10 17 2 8 9 13 20 9 26 -4 6 1 7 11 3 12 -4 15 -3 10 5 -10
16 6 15 23 0 9 -9 12 -9 7 -1 -8 15 27 27 54 18 15 -5 20 -2 20 12 0 17 40 43
67 43 7 0 13 4 13 10 0 5 18 14 39 21 24 7 41 19 44 30 4 14 14 19 41 19 35 0
43 10 38 51 -1 4 55 12 123 19 69 8 125 17 125 22 0 4 19 8 43 8 23 0 53 7 65
16 12 8 30 13 40 10 10 -3 34 3 55 14 27 15 56 20 107 20 56 0 75 4 91 19 23
22 136 34 263 30 65 -3 79 0 87 14 6 9 16 17 24 17 7 0 15 4 17 9 2 5 38 12
81 16 67 6 77 5 77 -9 0 -14 17 -16 135 -16 125 0 165 -7 185 -31 3 -4 36 -10
74 -14 38 -4 76 -13 83 -21 18 -17 44 -18 78 -2 19 9 28 9 37 0 7 -7 20 -12
29 -12 10 0 19 -3 21 -7 7 -18 90 -53 122 -53 32 0 36 -3 36 -25 0 -22 4 -25
40 -25 29 0 40 4 40 15 0 8 -7 15 -15 15 -8 0 -15 5 -15 10 0 6 7 10 15 10 8
0 15 -4 15 -10 0 -18 82 -12 96 8 11 16 13 15 23 -10 6 -16 17 -28 26 -28 13
0 19 -12 16 -32 0 -4 6 -5 14 -2 8 4 17 -1 21 -10 7 -19 31 -21 36 -4 3 8 14
5 35 -10 17 -12 36 -22 42 -22 6 0 11 -8 11 -18 0 -9 13 -23 30 -31 31 -13 66
-8 56 8 -4 5 4 6 16 3 20 -5 21 -7 5 -10 -16 -3 -14 -6 10 -19 32 -17 88 -26
113 -18 36 11 13 38 -87 101 -297 186 -631 311 -998 374 -167 29 -572 37 -730
15z m142 -31 c-3 -3 -12 -4 -19 -1 -8 3 -5 6 6 6 11 1 17 -2 13 -5z m909 -94
c-22 -11 -42 -18 -44 -15 -3 3 0 5 7 5 7 0 9 5 5 12 -4 6 -3 9 2 6 5 -3 18 -2
29 3 39 15 39 8 1 -11z m-1655 -88 c-7 -2 -18 1 -23 6 -8 8 -4 9 13 5 13 -4
18 -8 10 -11z m-47 0 c2 -4 -5 -9 -17 -9 -17 -2 -19 0 -7 7 18 12 18 12 24 2z
m2026 -2 c8 -5 11 -10 5 -10 -5 0 -17 5 -25 10 -8 5 -10 10 -5 10 6 0 17 -5
25 -10z m95 -48 c-3 -3 -11 0 -18 7 -9 10 -8 11 6 5 10 -3 15 -9 12 -12z
m-2281 -4 c-5 -8 0 -9 14 -6 12 4 20 2 16 -3 -3 -5 3 -9 13 -9 15 0 16 -2 3
-10 -8 -5 -22 -10 -30 -10 -12 0 -12 2 -2 9 10 6 8 10 -8 14 -18 5 -21 27 -4
27 3 0 2 -5 -2 -12z m-28 -7 c-4 -5 -3 -11 1 -14 5 -2 2 -2 -5 0 -7 1 -22 -2
-33 -7 -10 -6 -19 -8 -19 -6 0 5 49 34 58 36 2 0 1 -4 -2 -9z m2314 -11 c8 -5
11 -10 5 -10 -5 0 -17 5 -25 10 -8 5 -10 10 -5 10 6 0 17 -5 25 -10z m58 -4
c23 -12 23 -13 -10 -13 -18 0 -27 2 -19 5 11 4 11 6 0 13 -22 14 3 10 29 -5z
m-2439 -42 c-7 -8 -22 -20 -33 -25 -13 -6 -11 -2 7 11 15 12 24 27 21 32 -4 7
-2 8 5 4 9 -6 9 -11 0 -22z m1 -29 c-7 -8 -17 -15 -23 -15 -6 0 -2 7 9 15 25
19 30 19 14 0z m2585 -14 c3 -5 0 -13 -6 -17 -7 -4 -9 -3 -5 4 3 5 0 13 -6 15
-9 4 -10 6 -1 6 6 1 14 -3 18 -8z m-42 -8 c-7 -2 -19 -2 -25 0 -7 3 -2 5 12 5
14 0 19 -2 13 -5z m87 -23 c8 -5 11 -10 5 -10 -5 0 -17 5 -25 10 -8 5 -10 10
-5 10 6 0 17 -5 25 -10z m23 -20 c20 12 21 12 8 -3 -18 -22 -34 -21 -62 4
l-24 20 28 -17 c25 -15 32 -16 50 -4z m23 -25 c-11 -8 -25 -15 -30 -15 -6 1 0
7 14 15 32 19 40 18 16 0z m-2861 -13 c-3 -3 -11 0 -18 7 -9 10 -8 11 6 5 10
-3 15 -9 12 -12z m-65 4 c0 -2 -8 -10 -17 -17 -16 -13 -17 -12 -4 4 13 16 21
21 21 13z m0 -41 c-7 -9 -15 -13 -17 -11 -7 7 7 26 19 26 6 0 6 -6 -2 -15z
m-40 1 c0 -2 -7 -7 -16 -10 -8 -3 -12 -2 -9 4 6 10 25 14 25 6z m5 -25 c-6 -5
-21 -11 -35 -15 -21 -5 -20 -3 5 9 35 17 42 18 30 6z m-262 -186 c-3 -9 -8
-14 -10 -11 -3 3 -2 9 2 15 9 16 15 13 8 -4z m-73 -65 c-6 -11 -13 -20 -16
-20 -2 0 0 9 6 20 6 11 13 20 16 20 2 0 0 -9 -6 -20z m-20 -73 c0 -6 -7 -2
-15 9 -14 19 -14 19 -15 0 0 -11 -3 -16 -7 -13 -3 4 -16 -1 -27 -10 -12 -10
-8 -3 8 14 23 25 32 30 43 22 7 -6 13 -16 13 -22z m185 -5 c-17 -15 -18 -15
-6 0 7 9 9 23 5 30 -6 10 -4 11 7 0 11 -10 10 -15 -6 -30z"/>
<path d="M3277 6328 c-7 -4 31 -8 84 -8 53 0 125 -3 160 -6 35 -4 61 -4 58 0
-9 10 -289 22 -302 14z"/>
<path d="M3595 6310 c-3 -6 3 -10 17 -10 13 0 75 -11 138 -24 194 -41 179 -38
150 -25 -14 6 -79 22 -145 35 -66 14 -127 27 -137 30 -9 3 -19 0 -23 -6z"/>
<path d="M3270 6296 c0 -8 4 -17 9 -20 5 -4 7 3 4 14 -6 23 -13 26 -13 6z"/>
<path d="M3308 6273 c6 -2 18 -2 25 0 6 3 1 5 -13 5 -14 0 -19 -2 -12 -5z"/>
<path d="M3448 6263 c12 -2 30 -2 40 0 9 3 -1 5 -23 4 -22 0 -30 -2 -17 -4z"/>
<path d="M3548 6253 c6 -2 18 -2 25 0 6 3 1 5 -13 5 -14 0 -19 -2 -12 -5z"/>
<path d="M3601 6246 c2 -2 27 -6 54 -9 34 -4 42 -3 25 3 -25 8 -87 13 -79 6z"/>
<path d="M3980 6218 c30 -11 93 -36 139 -54 47 -19 86 -32 88 -30 2 2 -33 18
-77 37 -55 22 -76 36 -68 42 9 5 5 6 -8 2 -12 -3 -41 1 -65 10 -65 22 -72 17
-9 -7z"/>
<path d="M3784 6209 c43 -11 81 -18 83 -15 5 5 -122 36 -144 35 -10 0 18 -9
61 -20z"/>
<path d="M4088 6203 c6 -2 18 -2 25 0 6 3 1 5 -13 5 -14 0 -19 -2 -12 -5z"/>
<path d="M4136 6201 c-4 -5 3 -7 14 -4 23 6 26 13 6 13 -8 0 -17 -4 -20 -9z"/>
<path d="M3888 6183 c7 -3 16 -2 19 1 4 3 -2 6 -13 5 -11 0 -14 -3 -6 -6z"/>
<path d="M4040 6135 c14 -8 30 -14 35 -14 6 0 -1 6 -15 14 -14 8 -29 14 -35
14 -5 0 1 -6 15 -14z"/>
<path d="M4795 6131 c3 -5 1 -12 -4 -15 -20 -13 -2 -136 20 -136 5 0 9 5 9 12
0 6 3 9 6 6 3 -4 -3 -21 -13 -40 -9 -18 -18 -40 -19 -48 -1 -8 -5 -24 -9 -35
-6 -16 -5 -17 4 -5 6 8 11 10 11 4 0 -6 -9 -19 -20 -29 -11 -10 -20 -25 -20
-33 0 -12 -3 -12 -17 -1 -16 13 -17 12 -5 -3 9 -11 10 -18 2 -23 -5 -3 -10 0
-10 7 0 10 -3 9 -9 -2 -6 -8 -8 -17 -6 -21 3 -3 -21 -35 -52 -70 l-56 -64 59
60 c32 33 114 118 182 188 l123 128 -23 18 c-13 10 -37 17 -54 16 -19 -1 -31
3 -31 11 0 9 5 10 18 3 28 -14 34 -11 15 10 -13 15 -28 19 -61 16 -31 -2 -42
1 -41 11 4 24 14 26 43 9 l28 -17 -30 26 c-30 26 -52 35 -40 17z m119 -154
c-22 -38 -54 -60 -54 -36 0 5 4 8 9 4 5 -3 12 -1 16 5 5 9 -7 14 -27 11 -4 0
-5 6 -2 14 7 17 24 20 24 5 0 -5 7 -7 15 -4 14 6 13 8 -2 21 -16 13 -16 13 5
3 13 -6 20 -16 16 -23z m-72 -59 c-12 -12 -35 -1 -27 12 3 5 13 6 21 3 10 -4
12 -9 6 -15z"/>
<path d="M4330 6069 c63 -33 121 -66 129 -72 11 -9 13 -9 8 0 -12 19 -217 132
-242 132 -5 1 42 -27 105 -60z"/>
<path d="M4129 6100 c24 -11 46 -20 50 -20 12 1 -64 39 -79 39 -8 0 5 -8 29
-19z"/>
<path d="M4805 6100 c3 -5 11 -10 16 -10 6 0 7 5 4 10 -3 6 -11 10 -16 10 -6
0 -7 -4 -4 -10z"/>
<path d="M4210 6066 c0 -2 7 -7 16 -10 8 -3 12 -2 9 4 -6 10 -25 14 -25 6z"/>
<path d="M4260 6040 c8 -5 20 -10 25 -10 6 0 3 5 -5 10 -8 5 -19 10 -25 10 -5
0 -3 -5 5 -10z"/>
<path d="M4300 6026 c0 -3 14 -12 30 -21 17 -9 30 -13 30 -11 0 3 -13 12 -30
21 -16 9 -30 13 -30 11z"/>
<path d="M4371 5987 c3 -4 32 -24 65 -45 79 -51 84 -54 84 -49 0 2 -24 20 -52
39 -54 36 -107 66 -97 55z"/>
<path d="M4480 5987 c0 -3 24 -20 52 -38 29 -19 69 -47 88 -64 25 -21 29 -23
15 -6 -24 28 -155 119 -155 108z"/>
<path d="M4843 5787 c-205 -219 -232 -250 -207 -240 13 5 15 3 9 -7 -5 -8 -4
-11 3 -6 6 4 8 14 5 24 -6 15 -4 15 15 -2 25 -21 30 -16 7 7 -13 13 -12 17 2
29 12 9 15 9 9 1 -4 -8 -2 -13 8 -13 8 0 18 5 22 12 4 7 3 8 -4 4 -8 -5 -10
-2 -6 8 3 9 10 14 14 11 10 -6 24 14 25 35 0 9 11 14 30 15 19 0 30 5 31 15 2
31 5 36 27 49 21 14 21 13 7 -5 -8 -10 -19 -22 -25 -26 -7 -5 -6 -8 1 -8 5 0
20 14 33 31 14 19 28 28 37 25 8 -3 13 -2 9 3 -3 5 -2 17 2 28 6 16 8 15 14
-7 7 -25 7 -25 8 3 1 16 5 26 9 23 13 -8 35 11 27 24 -6 9 -9 9 -15 0 -5 -8
-9 -8 -13 3 -6 15 9 17 29 4 7 -4 18 0 25 9 12 14 14 14 27 -3 10 -13 16 -14
19 -5 7 17 20 15 44 -9 11 -11 24 -18 27 -14 4 3 0 10 -8 15 -13 8 -12 10 2
10 11 0 16 6 13 20 -5 28 10 25 34 -6 23 -29 27 -44 11 -44 -5 0 -10 6 -10 14
0 7 -8 20 -17 27 -17 13 -17 13 -3 -5 9 -12 10 -17 3 -12 -22 13 -14 -18 11
-41 17 -17 26 -19 34 -11 9 9 12 9 12 0 0 -7 3 -11 8 -11 20 3 25 -2 12 -12
-12 -8 -9 -9 9 -4 20 6 23 4 18 -9 -5 -12 1 -19 17 -26 13 -5 27 -14 32 -21 5
-9 2 -10 -11 -5 -15 5 -16 4 -5 -9 7 -8 9 -23 6 -32 -5 -11 -4 -14 2 -8 27 29
21 60 -19 108 -22 26 -45 45 -50 41 -5 -3 -8 -1 -7 4 2 6 -36 50 -84 99 l-87
89 -178 -189z"/>
<path d="M1666 5891 c-3 -5 1 -12 10 -15 8 -3 12 -10 9 -16 -3 -5 -2 -10 4
-10 17 0 21 18 5 24 -8 3 -12 10 -9 16 3 5 2 10 -4 10 -5 0 -12 -4 -15 -9z"/>
<path d="M1735 5879 c-4 -6 -5 -12 -2 -15 2 -3 7 2 10 11 7 17 1 20 -8 4z"/>
<path d="M4534 5881 c7 -11 46 -35 46 -28 0 3 -12 12 -26 22 -15 9 -23 12 -20
6z"/>
<path d="M1505 5831 c-3 -6 -10 -9 -14 -7 -4 3 -8 -1 -8 -9 0 -20 26 -19 34 0
7 19 -2 31 -12 16z"/>
<path d="M1798 5833 c7 -3 16 -2 19 1 4 3 -2 6 -13 5 -11 0 -14 -3 -6 -6z"/>
<path d="M1420 5724 c0 -11 5 -14 16 -10 9 3 22 6 30 6 9 0 12 5 9 10 -10 17
-55 12 -55 -6z"/>
<path d="M5290 5671 c0 -4 9 -20 20 -34 11 -14 17 -27 13 -30 -5 -2 -3 -3 3
-1 6 1 17 -2 25 -7 11 -6 11 -11 1 -21 -6 -6 -12 -16 -12 -22 0 -5 7 -1 16 10
12 14 14 15 11 3 -6 -19 20 -62 33 -54 11 7 33 -22 26 -34 -3 -5 -3 -17 0 -26
5 -12 9 -13 14 -4 6 8 13 3 24 -17 8 -16 15 -23 16 -15 0 16 -96 160 -140 210
-16 18 -30 38 -30 42 0 5 -4 9 -10 9 -5 0 -10 -4 -10 -9z m108 -147 c-4 -3
-12 5 -18 18 -12 22 -12 22 6 6 10 -10 15 -20 12 -24z"/>
<path d="M1133 5493 c-87 -134 -100 -157 -156 -269 -62 -123 -142 -322 -134
-331 3 -3 9 6 13 21 3 14 9 26 13 26 4 0 7 8 8 18 2 28 50 147 59 147 5 0 8 4
6 10 -2 5 7 31 19 57 16 34 25 45 31 36 6 -8 7 -5 3 10 -4 13 -2 22 5 22 6 0
9 4 6 8 -3 5 6 25 19 45 14 20 25 41 25 47 0 6 5 8 12 4 7 -4 8 -3 4 4 -4 7
-4 18 0 24 6 9 11 5 16 -12 6 -20 7 -18 3 8 -3 18 -1 31 4 28 5 -3 8 2 7 12 0
11 5 16 15 14 18 -2 33 23 23 39 -6 10 22 55 34 52 4 -1 9 1 12 4 3 4 -1 3 -7
-1 -20 -11 -15 5 9 31 12 13 17 23 11 23 -6 0 -33 -35 -60 -77z m-11 -55 c-7
-7 -12 -8 -12 -2 0 14 12 26 19 19 2 -3 -1 -11 -7 -17z"/>
<path d="M1531 5463 c-32 -42 -36 -50 -15 -31 25 24 71 88 62 88 -2 0 -23 -26
-47 -57z"/>
<path d="M1655 5510 c-3 -6 1 -7 9 -4 18 7 21 14 7 14 -6 0 -13 -4 -16 -10z"/>
<path d="M5350 5516 c0 -2 7 -7 16 -10 8 -3 12 -2 9 4 -6 10 -25 14 -25 6z"/>
<path d="M1457 5474 c-26 -35 -17 -38 11 -3 13 16 20 29 15 29 -4 0 -16 -12
-26 -26z"/>
<path d="M2655 5481 c-22 -11 -37 -20 -34 -20 10 -1 79 29 79 34 0 7 0 7 -45
-14z"/>
<path d="M1155 5480 c-3 -5 -1 -10 4 -10 6 0 11 5 11 10 0 6 -2 10 -4 10 -3 0
-8 -4 -11 -10z"/>
<path d="M2577 5446 c-16 -12 -15 -13 9 -13 16 0 21 2 14 7 -9 6 -9 9 1 13 8
3 10 6 4 6 -5 0 -18 -6 -28 -13z"/>
<path d="M1405 5404 c-9 -15 -12 -23 -6 -20 11 7 35 46 28 46 -3 0 -12 -12
-22 -26z"/>
<path d="M2487 5395 c-116 -70 -247 -175 -247 -199 0 -6 4 -6 11 1 7 7 21 8
42 2 18 -5 51 -9 74 -9 32 0 48 -6 67 -25 23 -22 33 -25 105 -25 l80 0 3 33
c3 29 7 33 45 42 53 13 70 29 20 20 -23 -5 -42 -3 -51 4 -10 9 -15 3 -25 -29
-10 -33 -17 -40 -44 -45 -49 -9 -120 -2 -125 13 -2 7 9 18 27 25 l30 11 -31
13 c-25 11 -28 15 -18 28 7 8 9 15 4 15 -5 0 11 13 35 29 24 16 49 27 56 24 7
-2 16 0 19 5 6 10 -47 7 -67 -4 -7 -3 2 6 18 20 22 20 24 24 8 17 -28 -14 -54
-15 -33 -1 8 5 11 10 6 10 -5 0 -3 7 4 15 7 9 20 13 29 10 8 -3 12 -3 8 1 -4
4 -2 13 4 21 17 19 10 17 -54 -22z m-26 -74 c-7 -5 -11 -14 -7 -20 4 -7 1 -9
-8 -5 -19 7 -9 34 13 34 13 0 13 -2 2 -9z m-46 -31 c-3 -5 -12 -10 -18 -10 -7
0 -6 4 3 10 19 12 23 12 15 0z"/>
<path d="M1460 5370 c-12 -16 -19 -30 -16 -30 2 0 14 14 26 30 12 17 19 30 16
30 -2 0 -14 -13 -26 -30z"/>
<path d="M5490 5397 c0 -4 7 -18 16 -31 10 -16 12 -26 5 -31 -6 -3 -11 -12
-11 -18 0 -7 4 -6 10 3 8 12 10 12 16 -3 3 -9 9 -15 13 -12 13 7 52 -81 45
-101 -4 -13 -3 -15 3 -6 7 9 13 6 21 -13 7 -15 9 -31 6 -37 -4 -6 -2 -8 3 -5
13 8 26 -20 16 -36 -3 -7 -2 -9 2 -4 5 4 15 -5 22 -20 12 -26 12 -26 7 -3 -11
43 -104 224 -122 238 -9 7 -16 15 -14 17 1 3 2 8 2 13 -1 10 -40 59 -40 49z"/>
<path d="M1360 5340 c-12 -16 -19 -30 -16 -30 2 0 14 14 26 30 12 17 19 30 16
30 -2 0 -14 -13 -26 -30z"/>
<path d="M2648 5336 c-10 -7 -18 -21 -18 -30 0 -10 -4 -14 -10 -11 -5 3 -7 0
-5 -7 4 -9 -2 -14 -17 -13 -25 0 -37 -17 -17 -24 8 -2 9 1 3 10 -6 12 -5 12 9
1 13 -12 18 -11 28 6 10 16 21 19 48 16 33 -3 33 -3 6 4 -43 10 -40 38 3 34
21 -1 31 2 27 8 -4 6 -11 8 -16 5 -5 -4 -9 -1 -9 4 0 14 -11 13 -32 -3z"/>
<path d="M1053 5303 c-7 -15 -11 -28 -9 -31 6 -6 28 38 24 48 -2 5 -9 -3 -15
-17z"/>
<path d="M2530 5300 c0 -6 7 -10 15 -10 8 0 15 2 15 4 0 2 -7 6 -15 10 -8 3
-15 1 -15 -4z"/>
<path d="M1306 5253 c-6 -14 -5 -15 5 -6 7 7 10 15 7 18 -3 3 -9 -2 -12 -12z"/>
<path d="M2766 5255 c-3 -9 1 -18 10 -22 21 -8 25 -1 9 20 -11 15 -13 16 -19
2z"/>
<path d="M1280 5210 c-6 -11 -8 -20 -6 -20 3 0 10 9 16 20 6 11 8 20 6 20 -3
0 -10 -9 -16 -20z"/>
<path d="M5205 5197 c-19 -19 -35 -45 -35 -56 0 -12 29 -80 65 -151 98 -196
175 -473 206 -739 7 -62 18 -119 24 -128 10 -13 23 -14 77 -9 l66 7 5 37 c11
87 -33 366 -84 537 -32 109 -106 290 -163 400 -59 114 -64 122 -100 131 -21 5
-32 0 -61 -29z"/>
<path d="M1340 5184 c-12 -19 -21 -37 -18 -39 2 -2 14 14 26 36 28 49 22 52
-8 3z"/>
<path d="M2800 5211 c-8 -3 -16 -15 -18 -26 -3 -19 -2 -19 19 2 24 24 24 35
-1 24z"/>
<path d="M977 5171 c-4 -17 -3 -21 5 -13 5 5 8 16 6 23 -3 8 -7 3 -11 -10z"/>
<path d="M6201 5167 c-13 -21 -12 -21 5 -5 10 10 16 20 13 22 -3 3 -11 -5 -18
-17z"/>
<path d="M1255 5169 c-4 -6 -5 -12 -2 -15 2 -3 7 2 10 11 7 17 1 20 -8 4z"/>
<path d="M2855 5140 c-3 -5 -1 -10 4 -10 6 0 11 5 11 10 0 6 -2 10 -4 10 -3 0
-8 -4 -11 -10z"/>
<path d="M5863 5106 c-51 -22 -91 -41 -89 -43 2 -2 16 1 31 7 19 7 31 7 40 0
9 -8 15 -8 20 0 3 5 0 10 -7 11 -7 0 0 7 17 14 16 7 36 10 44 7 8 -3 12 -1 8
5 -4 6 0 14 9 17 24 9 27 7 14 -9 -12 -14 -10 -15 13 -11 15 3 27 0 27 -5 0
-6 3 -8 8 -6 4 3 16 1 28 -3 16 -6 29 -33 54 -112 18 -56 36 -114 41 -128 20
-56 -2 37 -34 142 -29 98 -34 108 -59 113 -15 4 -37 14 -50 24 -22 16 -26 16
-115 -23z"/>
<path d="M2820 5115 c-7 -9 -11 -17 -9 -20 3 -2 10 5 17 15 14 24 10 26 -8 5z"/>
<path d="M6140 5110 c-8 -5 -10 -10 -5 -10 6 0 17 5 25 10 8 5 11 10 5 10 -5
0 -17 -5 -25 -10z"/>
<path d="M1202 5065 c-30 -62 -27 -71 4 -12 14 27 24 51 22 53 -3 2 -14 -17
-26 -41z"/>
<path d="M6112 5090 c0 -8 6 -31 13 -50 7 -19 13 -28 13 -20 0 8 -6 31 -13 50
-7 19 -13 28 -13 20z"/>
<path d="M6004 5069 c-4 -7 -3 -9 4 -5 6 3 15 -2 21 -11 6 -10 11 -13 11 -7 0
20 -27 37 -36 23z"/>
<path d="M2692 5049 c-56 -28 -99 -104 -80 -144 6 -14 20 -25 31 -25 10 0 34
-7 53 -16 28 -13 34 -22 34 -48 0 -41 14 -61 35 -52 14 5 16 14 11 45 -5 33
-2 43 19 62 18 17 25 35 25 62 0 21 7 50 17 65 15 25 13 24 -16 -5 -18 -18
-33 -33 -34 -33 -1 0 -3 12 -4 27 -1 19 1 22 8 12 5 -8 9 -9 9 -4 0 11 -20 44
-20 33 0 -4 -14 -2 -32 3 -24 6 -38 5 -56 -7 -13 -9 -26 -13 -29 -11 -11 12
57 36 85 31 18 -4 32 -1 37 5 5 8 -1 10 -21 5 -19 -5 -25 -4 -20 5 10 16 -4
14 -52 -10z m118 -119 c0 -16 -4 -30 -8 -30 -5 0 -7 14 -4 30 2 17 6 30 8 30
2 0 4 -13 4 -30z m-53 -112 c-3 -7 -5 -2 -5 12 0 14 2 19 5 13 2 -7 2 -19 0
-25z"/>
<path d="M2900 5050 c8 -5 22 -10 30 -10 13 0 13 1 0 10 -8 5 -22 10 -30 10
-13 0 -13 -1 0 -10z"/>
<path d="M5735 5050 c-3 -6 1 -7 9 -4 18 7 21 14 7 14 -6 0 -13 -4 -16 -10z"/>
<path d="M1256 5023 c-6 -14 -5 -15 5 -6 7 7 10 15 7 18 -3 3 -9 -2 -12 -12z"/>
<path d="M5681 5035 c0 -5 9 -28 20 -50 10 -22 16 -29 13 -15 -7 28 -33 80
-33 65z"/>
<path d="M5745 5013 c4 -10 16 -42 27 -71 12 -29 23 -51 25 -48 5 5 -47 136
-54 136 -3 0 -2 -8 2 -17z"/>
<path d="M703 4980 c0 -25 2 -35 4 -22 2 12 2 32 0 45 -2 12 -4 2 -4 -23z"/>
<path d="M782 4985 c0 -16 2 -22 5 -12 2 9 2 23 0 30 -3 6 -5 -1 -5 -18z"/>
<path d="M6141 4984 c0 -11 3 -14 6 -6 3 7 2 16 -1 19 -3 4 -6 -2 -5 -13z"/>
<path d="M2021 4961 c-12 -16 -21 -32 -21 -35 0 -3 -17 -32 -37 -63 -81 -127
-156 -332 -189 -516 -21 -122 -21 -371 1 -492 72 -403 286 -742 615 -978 175
-126 408 -224 626 -263 136 -24 416 -25 534 -1 219 44 451 146 621 274 137
103 367 348 347 369 -5 4 -33 -28 -35 -39 -2 -19 -45 -67 -54 -62 -5 4 -8 3
-7 -2 5 -15 -47 -60 -65 -57 -15 2 -16 0 -6 -12 18 -22 2 -29 -18 -7 -10 10
-14 13 -10 6 5 -6 5 -18 1 -24 -4 -8 -3 -9 4 -5 8 5 10 1 5 -9 -4 -13 -8 -14
-14 -4 -4 7 -5 17 -2 22 4 6 -4 7 -19 4 -19 -5 -32 0 -51 17 -14 13 -29 21
-33 17 -3 -3 -3 4 0 17 4 12 11 57 16 100 4 42 17 96 29 119 29 58 27 121 -5
186 -26 51 -26 52 -10 96 16 43 16 45 -5 67 -20 21 -24 22 -43 8 -19 -13 -22
-12 -37 8 l-17 21 -58 -21 c-57 -20 -169 -38 -145 -22 8 5 4 12 -13 24 -14 9
-42 41 -61 72 -20 32 -41 54 -48 51 -7 -3 -14 3 -15 12 -9 75 -16 102 -27 111
-13 10 -11 -6 9 -95 7 -29 6 -29 -10 5 -9 19 -17 46 -16 60 0 14 -2 18 -5 8
-2 -9 -15 -24 -29 -33 -26 -17 -24 -18 -38 28 -3 9 -23 14 -58 15 -30 1 -67 8
-83 16 -19 10 -33 12 -41 5 -16 -13 -44 0 -44 21 0 10 -7 21 -16 24 -22 8 -22
8 -26 -10 -2 -10 -11 -2 -28 25 -19 31 -31 41 -52 41 -16 0 -28 3 -28 8 0 4
-15 16 -34 26 -19 10 -37 25 -40 32 -3 8 -14 14 -25 14 -11 0 -24 6 -28 14 -4
7 -24 21 -43 31 -41 21 -60 39 -60 57 0 7 -13 24 -30 38 -16 14 -30 30 -30 36
0 6 -18 19 -40 29 -22 10 -40 22 -40 27 0 4 -6 8 -12 8 -18 1 -59 68 -45 73 6
2 7 9 2 16 -6 11 -10 10 -19 -5 -16 -28 -34 -27 -28 1 5 30 -12 33 -48 8 -33
-22 -38 -31 -51 -80 -8 -31 -18 -44 -39 -53 -61 -25 -75 -68 -55 -162 6 -32 5
-38 -8 -38 -10 0 -25 20 -38 50 -12 28 -30 55 -40 60 -27 15 -76 12 -83 -5 -3
-10 -19 -15 -44 -15 -69 0 -99 -17 -118 -66 -19 -49 -16 -133 6 -159 8 -9 29
-15 59 -15 43 0 48 3 58 30 8 20 18 30 32 30 25 0 26 -3 4 -62 -9 -26 -15 -50
-12 -52 3 -3 21 -6 42 -8 41 -2 50 -16 41 -64 -5 -28 -1 -38 24 -64 17 -16 28
-30 25 -30 -18 0 -74 46 -91 74 -15 25 -29 35 -58 40 -22 3 -49 17 -61 30 -16
16 -37 25 -70 28 -27 3 -67 14 -90 24 -37 16 -43 23 -48 59 -7 39 -50 141 -65
150 -4 2 -13 25 -20 50 -18 63 -30 65 -30 5 0 -34 -4 -49 -11 -45 -6 4 -8 13
-5 20 5 15 -9 78 -26 112 -6 11 -7 27 -3 34 6 8 4 10 -4 5 -22 -14 -40 26 -41
90 0 72 32 186 61 215 16 16 19 32 18 82 -1 34 1 89 6 121 6 41 5 57 -3 52 -5
-3 -13 0 -15 6 -4 10 -8 9 -16 -2 -8 -12 -11 -12 -11 -2 0 8 9 27 21 43 11 16
18 29 15 29 -2 0 -14 -13 -25 -29z m809 -485 c0 -3 -4 -8 -10 -11 -5 -3 -10
-1 -10 4 0 6 5 11 10 11 6 0 10 -2 10 -4z m-740 -350 c0 -12 -5 -7 -19 24 -11
24 -11 24 3 6 9 -11 16 -24 16 -30z m610 -54 c18 -11 36 -24 38 -30 6 -20 -51
-13 -78 8 -16 13 -41 20 -70 20 -33 0 -41 3 -30 10 25 16 103 11 140 -8z m138
-58 c38 -11 27 -34 -17 -34 -40 0 -57 11 -46 30 7 11 29 13 63 4z m-143 -24
c3 -5 1 -10 -4 -10 -6 0 -11 5 -11 10 0 6 2 10 4 10 3 0 8 -4 11 -10z m1052
-112 c-3 -8 -6 -5 -6 6 -1 11 2 17 5 13 3 -3 4 -12 1 -19z m-948 -47 c18 -16
37 -20 92 -19 l70 2 52 -52 c41 -41 60 -52 84 -52 45 0 77 -17 97 -51 20 -34
14 -62 -17 -78 -20 -10 -19 -10 10 -5 23 4 49 -2 85 -19 36 -16 65 -22 89 -19
30 3 43 -2 71 -27 19 -17 38 -28 41 -24 4 3 9 -1 13 -10 9 -25 -13 -79 -48
-117 -22 -24 -34 -50 -39 -83 -9 -53 -53 -137 -72 -137 -8 0 -7 4 2 9 12 8 9
11 -11 16 -17 5 -25 12 -21 21 3 8 -3 17 -13 21 -21 8 -27 12 -82 64 -22 19
-53 41 -70 48 -18 8 -32 20 -32 27 0 8 -18 21 -40 30 -22 9 -40 22 -40 30 0 8
-9 14 -20 14 -11 0 -20 4 -20 9 0 5 -14 14 -30 21 -17 7 -36 24 -43 38 -7 16
-23 29 -42 32 -35 8 -76 28 -90 46 -5 7 -18 14 -28 16 -10 1 -17 6 -15 10 2 3
-7 17 -19 30 -12 13 -23 34 -26 48 -4 25 -4 25 -6 -2 0 -15 -6 -30 -11 -33 -8
-5 -7 -11 1 -21 7 -9 8 -14 1 -14 -6 0 -13 6 -16 13 -4 6 -5 3 -3 -8 3 -14 -1
-21 -13 -21 -15 0 -14 5 6 45 24 45 32 115 14 126 -5 3 -10 11 -10 18 0 8 3 8
12 -1 17 -17 28 -15 28 7 0 18 36 51 70 64 8 3 15 6 16 6 1 1 11 -8 23 -18z
m965 4 c-4 -8 -8 -15 -10 -15 -2 0 -4 7 -4 15 0 8 4 15 10 15 5 0 7 -7 4 -15z
m-1064 -230 c0 -5 -5 -3 -10 5 -5 8 -10 20 -10 25 0 6 5 3 10 -5 5 -8 10 -19
10 -25z m1517 -562 c-3 -10 -5 -4 -5 12 0 17 2 24 5 18 2 -7 2 -21 0 -30z m58
-33 c-3 -5 -12 -10 -18 -10 -7 0 -6 4 3 10 19 12 23 12 15 0z"/>
<path d="M4920 4940 c-11 -11 -20 -26 -20 -34 0 -15 35 -98 46 -109 5 -4 9
-13 10 -20 1 -7 13 -41 27 -77 13 -36 37 -118 53 -183 28 -115 29 -116 41 -85
l13 33 -6 -40 c-10 -68 -5 -158 11 -182 22 -32 79 -32 100 1 16 24 15 33 -6
161 -28 169 -152 520 -193 547 -20 14 -56 8 -76 -12z m24 -14 c-5 -14 -9 -15
-15 -5 -5 8 -3 17 4 21 15 9 19 4 11 -16z m26 -6 c0 -5 -5 -10 -11 -10 -5 0
-7 5 -4 10 3 6 8 10 11 10 2 0 4 -4 4 -10z m0 -118 c0 -13 -23 16 -34 42 -28
67 -26 79 4 21 16 -33 30 -61 30 -63z m20 83 c0 -2 -10 -10 -22 -16 -21 -11
-22 -11 -9 4 13 16 31 23 31 12z m0 -63 c0 -7 -4 -10 -10 -7 -5 3 -10 16 -10
28 0 18 2 19 10 7 5 -8 10 -21 10 -28z m50 18 c0 -11 -2 -20 -4 -20 -2 0 -6 9
-9 20 -3 11 -1 20 4 20 5 0 9 -9 9 -20z m-65 -59 c-3 -5 -1 -12 5 -16 5 -3 10
-1 10 4 0 6 4 11 9 11 4 0 6 -12 3 -26 -7 -37 18 -50 40 -21 l18 22 0 -22 c0
-13 -4 -23 -8 -23 -5 0 -7 -20 -6 -45 2 -25 -1 -45 -5 -45 -5 0 -7 -12 -5 -27
3 -16 -9 10 -24 57 -16 47 -33 95 -40 106 -6 12 -8 24 -5 28 10 9 15 7 8 -3z
m57 -38 c-8 -24 -11 -26 -17 -9 -5 11 -3 21 5 26 7 4 9 13 5 21 -6 11 -5 11 5
2 9 -8 10 -19 2 -40z m38 27 c0 -5 -2 -10 -4 -10 -3 0 -8 5 -11 10 -3 6 -1 10
4 10 6 0 11 -4 11 -10z m-4 -248 c1 -77 0 -82 -8 -42 -5 25 -10 50 -10 55 -1
9 13 75 16 75 0 0 1 -39 2 -88z m11 6 c-3 -8 -6 -5 -6 6 -1 11 2 17 5 13 3 -3
4 -12 1 -19z m10 -180 c-3 -7 -5 -2 -5 12 0 14 2 19 5 13 2 -7 2 -19 0 -25z
m60 -64 c-3 -3 -12 -4 -19 -1 -8 3 -5 6 6 6 11 1 17 -2 13 -5z m47 -2 c3 -5
-1 -9 -9 -9 -8 0 -12 4 -9 9 3 4 7 8 9 8 2 0 6 -4 9 -8z m-58 -37 c17 -16 14
-18 -10 -9 -9 3 -16 10 -16 15 0 13 9 11 26 -6z"/>
<path d="M6151 4955 c1 -19 18 -51 18 -35 0 8 -4 22 -9 30 -5 8 -9 11 -9 5z"/>
<path d="M1140 4929 c-6 -11 -10 -25 -8 -30 2 -5 8 4 15 21 13 34 9 40 -7 9z"/>
<path d="M5735 4893 c3 -10 10 -36 15 -58 11 -51 39 -125 40 -104 0 20 -50
179 -57 179 -3 0 -2 -8 2 -17z"/>
<path d="M811 4805 c-13 -41 -21 -81 -18 -88 2 -6 7 4 11 23 4 19 14 57 23 83
8 27 13 50 11 53 -3 2 -15 -30 -27 -71z"/>
<path d="M722 4850 c0 -14 2 -19 5 -12 2 6 2 18 0 25 -3 6 -5 1 -5 -13z"/>
<path d="M6181 4865 c0 -5 8 -41 19 -80 11 -38 18 -54 15 -34 -6 39 -33 130
-34 114z"/>
<path d="M712 4789 c6 -16 12 -29 13 -27 6 6 -8 58 -16 58 -4 0 -3 -14 3 -31z"/>
<path d="M6135 4793 c4 -16 14 -59 22 -98 23 -103 31 -132 32 -113 1 23 -49
238 -56 238 -3 0 -2 -12 2 -27z"/>
<path d="M831 4794 c0 -11 3 -14 6 -6 3 7 2 16 -1 19 -3 4 -6 -2 -5 -13z"/>
<path d="M5831 4764 c0 -11 3 -14 6 -6 3 7 2 16 -1 19 -3 4 -6 -2 -5 -13z"/>
<path d="M580 4762 c0 -4 9 -15 20 -25 23 -19 28 -3 6 19 -16 16 -26 18 -26 6z"/>
<path d="M565 4730 c3 -5 8 -10 11 -10 2 0 4 5 4 10 0 6 -5 10 -11 10 -5 0 -7
-4 -4 -10z"/>
<path d="M5845 4715 c9 -55 43 -190 44 -175 1 19 -24 135 -38 175 l-11 30 5
-30z"/>
<path d="M5870 4715 c0 -5 5 -17 10 -25 5 -8 10 -10 10 -5 0 6 -5 17 -10 25
-5 8 -10 11 -10 5z"/>
<path d="M605 4700 c3 -5 13 -10 21 -10 8 0 14 -4 14 -10 0 -5 5 -10 10 -10
19 0 10 17 -15 28 -32 15 -38 15 -30 2z"/>
<path d="M2935 4700 c-7 -12 2 -12 30 0 19 8 19 9 -2 9 -12 1 -25 -3 -28 -9z"/>
<path d="M5791 4694 c0 -11 3 -14 6 -6 3 7 2 16 -1 19 -3 4 -6 -2 -5 -13z"/>
<path d="M6221 4694 c0 -11 3 -14 6 -6 3 7 2 16 -1 19 -3 4 -6 -2 -5 -13z"/>
<path d="M6251 4684 c0 -11 3 -14 6 -6 3 7 2 16 -1 19 -3 4 -6 -2 -5 -13z"/>
<path d="M771 4654 c0 -11 3 -14 6 -6 3 7 2 16 -1 19 -3 4 -6 -2 -5 -13z"/>
<path d="M5801 4660 c0 -8 4 -22 9 -30 12 -18 12 -2 0 25 -6 13 -9 15 -9 5z"/>
<path d="M6232 4645 c0 -16 2 -22 5 -12 2 9 2 23 0 30 -3 6 -5 -1 -5 -18z"/>
<path d="M1111 4634 c0 -11 3 -14 6 -6 3 7 2 16 -1 19 -3 4 -6 -2 -5 -13z"/>
<path d="M762 4610 c0 -14 2 -19 5 -12 2 6 2 18 0 25 -3 6 -5 1 -5 -13z"/>
<path d="M6242 4585 c0 -16 2 -22 5 -12 2 9 2 23 0 30 -3 6 -5 -1 -5 -18z"/>
<path d="M2888 4563 c-28 -30 -45 -73 -30 -73 6 0 15 13 20 30 7 20 16 28 25
24 8 -3 18 -1 22 5 4 7 -1 9 -12 5 -17 -5 -17 -5 0 9 9 8 17 17 17 21 0 13
-17 5 -42 -21z"/>
<path d="M5821 4574 c0 -11 3 -14 6 -6 3 7 2 16 -1 19 -3 4 -6 -2 -5 -13z"/>
<path d="M751 4564 c0 -11 3 -14 6 -6 3 7 2 16 -1 19 -3 4 -6 -2 -5 -13z"/>
<path d="M4530 4573 c0 -1 13 -8 30 -16 21 -11 30 -12 34 -3 3 7 5 7 5 -1 1
-7 9 -13 18 -13 9 0 13 -3 9 -7 -4 -4 -22 -6 -41 -5 -18 2 -36 -1 -39 -6 -3
-5 6 -7 19 -4 14 2 36 -3 51 -13 20 -13 29 -14 38 -5 16 17 -54 73 -94 74 -16
1 -30 0 -30 -1z"/>
<path d="M6190 4544 c0 -10 7 -64 15 -118 8 -55 16 -115 16 -135 2 -32 2 -33
6 -8 3 16 -3 84 -12 150 -16 114 -25 156 -25 111z"/>
<path d="M5832 4530 c0 -14 2 -19 5 -12 2 6 2 18 0 25 -3 6 -5 1 -5 -13z"/>
<path d="M6252 4525 c0 -16 2 -22 5 -12 2 9 2 23 0 30 -3 6 -5 -1 -5 -18z"/>
<path d="M742 4520 c0 -14 2 -19 5 -12 2 6 2 18 0 25 -3 6 -5 1 -5 -13z"/>
<path d="M5892 4500 c-1 -14 3 -43 7 -65 6 -26 9 -31 9 -15 1 14 -3 43 -7 65
-6 26 -9 31 -9 15z"/>
<path d="M682 4470 c0 -19 2 -27 5 -17 2 9 2 25 0 35 -3 9 -5 1 -5 -18z"/>
<path d="M5841 4474 c0 -11 3 -14 6 -6 3 7 2 16 -1 19 -3 4 -6 -2 -5 -13z"/>
<path d="M732 4450 c0 -19 2 -27 5 -17 2 9 2 25 0 35 -3 9 -5 1 -5 -18z"/>
<path d="M6266 4464 c-6 -17 9 -142 19 -152 3 -4 3 18 -2 48 -4 30 -7 70 -7
88 1 36 -1 39 -10 16z"/>
<path d="M1984 4416 c1 -26 6 -41 16 -43 10 -3 11 -2 3 4 -6 4 -13 24 -16 43
-4 34 -4 33 -3 -4z"/>
<path d="M4440 4441 c0 -6 4 -13 10 -16 6 -3 7 1 4 9 -7 18 -14 21 -14 7z"/>
<path d="M671 4394 c0 -11 3 -14 6 -6 3 7 2 16 -1 19 -3 4 -6 -2 -5 -13z"/>
<path d="M5852 4375 c0 -16 2 -22 5 -12 2 9 2 23 0 30 -3 6 -5 -1 -5 -18z"/>
<path d="M5913 4340 c0 -25 2 -35 4 -22 2 12 2 32 0 45 -2 12 -4 2 -4 -23z"/>
<path d="M2037 4351 c-4 -17 -3 -21 5 -13 5 5 8 16 6 23 -3 8 -7 3 -11 -10z"/>
<path d="M4540 4358 c0 -4 13 -8 30 -8 26 0 29 -3 28 -25 -2 -23 -10 -30 -32
-26 -4 1 -15 -6 -23 -16 -8 -10 -12 -13 -10 -8 3 6 -8 10 -25 11 -45 2 -17
-17 34 -23 40 -5 45 -3 56 21 7 15 12 39 12 54 0 24 -4 27 -35 28 -19 0 -35
-3 -35 -8z"/>
<path d="M4536 4328 c3 -4 0 -8 -7 -8 -7 0 -10 -2 -7 -5 7 -7 38 5 38 14 0 4
-7 8 -15 8 -8 0 -12 -4 -9 -9z"/>
<path d="M4572 4320 c0 -14 2 -19 5 -12 2 6 2 18 0 25 -3 6 -5 1 -5 -13z"/>
<path d="M662 4310 c0 -14 2 -19 5 -12 2 6 2 18 0 25 -3 6 -5 1 -5 -13z"/>
<path d="M5862 4300 c0 -19 2 -27 5 -17 2 9 2 25 0 35 -3 9 -5 1 -5 -18z"/>
<path d="M712 4275 c0 -16 2 -22 5 -12 2 9 2 23 0 30 -3 6 -5 -1 -5 -18z"/>
<path d="M6283 4245 c0 -33 2 -45 4 -27 2 18 2 45 0 60 -2 15 -4 0 -4 -33z"/>
<path d="M652 4214 c-1 -28 -4 -67 -7 -85 l-5 -34 11 33 c5 19 8 57 6 85 l-3
52 -2 -51z"/>
<path d="M5924 4160 c0 -58 1 -81 3 -52 2 28 2 76 0 105 -2 28 -3 5 -3 -53z"/>
<path d="M6234 4065 c0 -99 2 -138 3 -87 2 51 2 132 0 180 -1 48 -3 6 -3 -93z"/>
<path d="M704 4055 c0 -77 2 -107 3 -67 2 40 2 103 0 140 -2 37 -3 4 -3 -73z"/>
<path d="M5874 4060 c0 -74 1 -105 3 -67 2 37 2 97 0 135 -2 37 -3 6 -3 -68z"/>
<path d="M4630 4170 c0 -8 9 -32 20 -52 10 -20 24 -66 31 -102 6 -36 16 -66
21 -66 6 0 7 -7 4 -16 -4 -9 -2 -22 3 -28 5 -6 11 -22 14 -36 3 -14 4 -2 2 25
-6 70 -48 216 -73 256 -12 19 -22 27 -22 19z"/>
<path d="M304 4125 c-3 -8 -4 -20 -1 -27 3 -7 6 -3 6 9 1 14 9 23 24 26 l22 4
-23 2 c-12 0 -25 -6 -28 -14z"/>
<path d="M6294 4035 c0 -60 1 -84 3 -52 2 32 2 81 0 110 -2 29 -3 3 -3 -58z"/>
<path d="M297 3940 c3 -80 9 -172 13 -205 5 -36 6 -5 3 80 -3 77 -9 169 -13
205 -5 39 -6 7 -3 -80z"/>
<path d="M3792 4025 c0 -16 2 -22 5 -12 2 9 2 23 0 30 -3 6 -5 -1 -5 -18z"/>
<path d="M364 3915 c0 -71 1 -99 3 -62 2 37 2 96 0 130 -2 34 -3 4 -3 -68z"/>
<path d="M2191 4024 c0 -11 3 -14 6 -6 3 7 2 16 -1 19 -3 4 -6 -2 -5 -13z"/>
<path d="M5483 4030 c-31 -13 -40 -35 -47 -125 -23 -270 -97 -534 -216 -780
-105 -214 -206 -361 -374 -540 -36 -38 -66 -78 -66 -88 0 -49 48 -96 99 -97
30 0 45 11 115 82 161 164 268 314 371 518 139 277 222 564 240 830 3 52 8
109 11 126 6 43 -20 72 -71 79 -22 2 -50 0 -62 -5z"/>
<path d="M5924 3945 c0 -55 1 -76 3 -47 2 29 2 74 0 100 -2 26 -3 2 -3 -53z"/>
<path d="M2210 3990 c0 -5 10 -10 23 -10 18 0 19 2 7 10 -19 13 -30 13 -30 0z"/>
<path d="M653 3910 c0 -41 2 -58 4 -37 2 20 2 54 0 75 -2 20 -4 3 -4 -38z"/>
<path d="M2327 3969 c7 -7 15 -10 18 -7 3 3 -2 9 -12 12 -14 6 -15 5 -6 -5z"/>
<path d="M3802 3950 c0 -19 2 -27 5 -17 2 9 2 25 0 35 -3 9 -5 1 -5 -18z"/>
<path d="M5090 3916 c-5 -13 -14 -62 -20 -108 -18 -129 -37 -213 -80 -339 -82
-247 -216 -465 -402 -653 -61 -62 -71 -91 -42 -120 8 -9 32 -16 52 -16 33 0
45 8 113 79 194 203 330 434 412 701 45 146 67 252 74 362 7 103 -1 118 -58
118 -32 0 -41 -4 -49 -24z m58 7 c-13 -3 -15 -12 -11 -39 4 -22 2 -34 -6 -34
-6 0 -11 -7 -11 -15 0 -8 -4 -15 -9 -15 -5 0 -11 -8 -13 -17 -3 -10 -5 8 -6
39 -2 63 13 89 51 87 16 -1 17 -3 5 -6z m39 -75 c-3 -8 -6 -5 -6 6 -1 11 2 17
5 13 3 -3 4 -12 1 -19z m-110 -168 c-1 -22 -4 -34 -8 -27 -7 11 -1 67 7 67 1
0 2 -18 1 -40z"/>
<path d="M6282 3854 c-1 -28 -4 -80 -7 -115 l-4 -64 10 60 c5 33 8 85 6 115
l-3 55 -2 -51z"/>
<path d="M2510 3860 c0 -11 4 -20 9 -20 5 0 7 9 4 20 -3 11 -7 20 -9 20 -2 0
-4 -9 -4 -20z"/>
<path d="M6223 3810 c0 -36 2 -50 4 -32 2 17 2 47 0 65 -2 17 -4 3 -4 -33z"/>
<path d="M712 3830 c0 -14 2 -19 5 -12 2 6 2 18 0 25 -3 6 -5 1 -5 -13z"/>
<path d="M661 3774 c0 -27 4 -69 9 -94 6 -32 7 -18 3 45 -6 98 -13 128 -12 49z"/>
<path d="M5912 3800 c0 -14 2 -19 5 -12 2 6 2 18 0 25 -3 6 -5 1 -5 -13z"/>
<path d="M373 3725 c0 -27 2 -38 4 -22 2 15 2 37 0 50 -2 12 -4 0 -4 -28z"/>
<path d="M6213 3695 c0 -22 2 -30 4 -17 2 12 2 30 0 40 -3 9 -5 -1 -4 -23z"/>
<path d="M382 3645 c0 -16 2 -22 5 -12 2 9 2 23 0 30 -3 6 -5 -1 -5 -18z"/>
<path d="M321 3635 c0 -16 6 -68 13 -115 15 -89 14 -100 -9 -100 -8 0 -16 -4
-19 -8 -3 -5 9 -6 26 -4 29 4 30 6 24 46 -23 149 -34 207 -35 181z"/>
<path d="M6262 3630 c0 -19 2 -27 5 -17 2 9 2 25 0 35 -3 9 -5 1 -5 -18z"/>
<path d="M6203 3615 c0 -22 2 -30 4 -17 2 12 2 30 0 40 -3 9 -5 -1 -4 -23z"/>
<path d="M681 3614 c0 -11 3 -14 6 -6 3 7 2 16 -1 19 -3 4 -6 -2 -5 -13z"/>
<path d="M391 3594 c0 -11 3 -14 6 -6 3 7 2 16 -1 19 -3 4 -6 -2 -5 -13z"/>
<path d="M692 3570 c0 -14 2 -19 5 -12 2 6 2 18 0 25 -3 6 -5 1 -5 -13z"/>
<path d="M6252 3555 c0 -16 2 -22 5 -12 2 9 2 23 0 30 -3 6 -5 -1 -5 -18z"/>
<path d="M391 3554 c0 -11 3 -14 6 -6 3 7 2 16 -1 19 -3 4 -6 -2 -5 -13z"/>
<path d="M6191 3554 c0 -11 3 -14 6 -6 3 7 2 16 -1 19 -3 4 -6 -2 -5 -13z"/>
<path d="M701 3514 c0 -11 3 -14 6 -6 3 7 2 16 -1 19 -3 4 -6 -2 -5 -13z"/>
<path d="M402 3500 c0 -14 2 -19 5 -12 2 6 2 18 0 25 -3 6 -5 1 -5 -13z"/>
<path d="M6182 3495 c0 -16 2 -22 5 -12 2 9 2 23 0 30 -3 6 -5 -1 -5 -18z"/>
<path d="M6233 3458 c-7 -34 -10 -64 -8 -66 5 -6 28 104 24 117 -3 7 -10 -16
-16 -51z"/>
<path d="M5862 3480 c0 -14 2 -19 5 -12 2 6 2 18 0 25 -3 6 -5 1 -5 -13z"/>
<path d="M712 3460 c0 -14 2 -19 5 -12 2 6 2 18 0 25 -3 6 -5 1 -5 -13z"/>
<path d="M410 3446 c0 -14 4 -27 8 -30 5 -3 6 8 4 25 -5 35 -12 38 -12 5z"/>
<path d="M6171 3444 c0 -11 3 -14 6 -6 3 7 2 16 -1 19 -3 4 -6 -2 -5 -13z"/>
<path d="M721 3414 c0 -11 3 -14 6 -6 3 7 2 16 -1 19 -3 4 -6 -2 -5 -13z"/>
<path d="M5841 3404 c0 -11 3 -14 6 -6 3 7 2 16 -1 19 -3 4 -6 -2 -5 -13z"/>
<path d="M6162 3400 c0 -14 2 -19 5 -12 2 6 2 18 0 25 -3 6 -5 1 -5 -13z"/>
<path d="M272 3398 c2 -7 -4 -12 -12 -10 -8 2 -12 0 -8 -4 11 -10 -12 -35 -25
-27 -6 4 -7 1 -3 -6 5 -7 2 -26 -4 -42 -15 -36 1 -129 26 -149 9 -8 14 -9 14
-2 0 6 -4 13 -9 16 -4 3 -14 25 -21 50 -14 52 -3 99 36 146 15 18 21 31 14 35
-6 4 -9 1 -8 -7z"/>
<path d="M475 3380 c10 -11 20 -20 22 -20 2 0 -2 9 -9 20 -7 11 -17 20 -22 20
-5 0 -1 -9 9 -20z"/>
<path d="M635 3380 c-13 -5 -14 -9 -5 -9 8 0 24 4 35 9 13 5 14 9 5 9 -8 0
-24 -4 -35 -9z"/>
<path d="M588 3363 c7 -3 16 -2 19 1 4 3 -2 6 -13 5 -11 0 -14 -3 -6 -6z"/>
<path d="M6145 3340 c-4 -17 -5 -34 -2 -36 2 -3 7 10 11 27 8 42 0 50 -9 9z"/>
<path d="M6211 3354 c0 -11 3 -14 6 -6 3 7 2 16 -1 19 -3 4 -6 -2 -5 -13z"/>
<path d="M505 3350 c-3 -5 -2 -10 4 -10 5 0 13 5 16 10 3 6 2 10 -4 10 -5 0
-13 -4 -16 -10z"/>
<path d="M548 3353 c7 -3 16 -2 19 1 4 3 -2 6 -13 5 -11 0 -14 -3 -6 -6z"/>
<path d="M651 3324 c-30 -8 -57 -17 -60 -20 -7 -8 50 4 104 21 55 18 22 17
-44 -1z"/>
<path d="M1111 3324 c0 -11 3 -14 6 -6 3 7 2 16 -1 19 -3 4 -6 -2 -5 -13z"/>
<path d="M558 3293 c7 -3 16 -2 19 1 4 3 -2 6 -13 5 -11 0 -14 -3 -6 -6z"/>
<path d="M6121 3243 c-1 -6 -4 -20 -7 -30 -5 -17 -5 -17 6 0 6 10 9 23 6 30
-3 9 -5 9 -5 0z"/>
<path d="M6171 3199 c-7 -22 -11 -43 -8 -45 2 -2 9 14 16 37 7 22 11 43 8 45
-2 2 -9 -14 -16 -37z"/>
<path d="M1151 3220 c-1 -3 13 -41 30 -85 52 -138 191 -381 210 -369 5 3 6 -1
3 -9 -3 -8 6 -23 21 -35 21 -17 31 -19 55 -10 50 17 47 40 -17 146 -32 53 -63
108 -70 122 -6 14 -11 21 -11 15 -1 -19 23 -70 52 -113 25 -37 28 -47 18 -63
-9 -13 -9 -19 -1 -19 6 0 8 -7 5 -16 -5 -14 -4 -15 8 -5 10 8 16 9 21 1 3 -5
0 -10 -7 -10 -7 -1 -3 -6 10 -13 l23 -13 -26 -12 c-30 -14 -65 -1 -65 24 0 8
4 13 8 10 5 -3 9 1 9 9 0 8 -4 12 -9 9 -13 -9 -9 10 9 35 9 14 11 21 4 16 -8
-4 -17 -2 -22 6 -6 9 -7 4 -3 -16 l7 -30 -37 40 -37 40 30 -45 c16 -25 27 -47
24 -50 -3 -3 -8 0 -10 7 -2 7 -17 28 -33 48 -36 45 -31 78 6 44 29 -27 32 -11
4 21 -22 26 -25 36 -10 45 6 3 10 14 9 23 0 14 -2 13 -9 -3 -6 -13 -9 -15 -9
-5 -1 13 -3 13 -10 1 -8 -12 -13 -11 -30 10 -11 13 -20 20 -21 15 0 -5 7 -17
16 -27 9 -10 13 -23 9 -29 -5 -7 -13 -1 -22 17 -33 59 -83 164 -83 171 0 10
-49 109 -49 102z m180 -283 c-6 -8 -8 -17 -4 -20 3 -4 1 -7 -5 -7 -15 0 -15
13 0 28 16 16 23 15 9 -1z m147 -137 c12 -19 11 -20 -8 -8 -20 13 -27 28 -12
28 4 0 13 -9 20 -20z"/>
<path d="M490 3168 c0 -13 5 -30 11 -38 7 -11 8 -6 4 19 -6 26 -4 32 5 26 9
-5 11 -4 6 3 -12 20 -26 14 -26 -10z"/>
<path d="M6096 3164 c-4 -14 -5 -28 -3 -31 3 -2 8 8 11 23 4 14 5 28 3 31 -3
2 -8 -8 -11 -23z"/>
<path d="M1290 3155 c0 -5 5 -17 10 -25 5 -8 10 -10 10 -5 0 6 -5 17 -10 25
-5 8 -10 11 -10 5z"/>
<path d="M282 3135 c9 -10 21 -16 28 -13 7 2 -1 10 -16 17 -27 12 -28 11 -12
-4z"/>
<path d="M434 3120 c14 -48 59 -170 62 -167 5 4 -52 176 -61 185 -4 4 -4 -4
-1 -18z"/>
<path d="M1221 3114 c0 -11 3 -14 6 -6 3 7 2 16 -1 19 -3 4 -6 -2 -5 -13z"/>
<path d="M353 3113 c15 -2 37 -2 50 0 12 2 0 4 -28 4 -27 0 -38 -2 -22 -4z"/>
<path d="M1340 3041 c0 -6 4 -13 10 -16 6 -3 7 1 4 9 -7 18 -14 21 -14 7z"/>
<path d="M531 3024 c0 -11 3 -14 6 -6 3 7 2 16 -1 19 -3 4 -6 -2 -5 -13z"/>
<path d="M1269 3013 c-13 -15 -12 -15 9 -4 23 12 28 21 13 21 -5 0 -15 -7 -22
-17z"/>
<path d="M6111 3023 c-1 -6 -4 -20 -7 -30 -5 -17 -5 -17 6 0 6 10 9 23 6 30
-3 9 -5 9 -5 0z"/>
<path d="M505 2918 c4 -13 11 -27 16 -33 5 -5 4 5 -2 23 -12 36 -24 44 -14 10z"/>
<path d="M1390 2881 c0 -5 5 -13 10 -16 6 -3 10 -2 10 4 0 5 -4 13 -10 16 -5
3 -10 2 -10 -4z"/>
<path d="M540 2836 c0 -11 30 -66 36 -66 2 0 -3 15 -12 33 -19 36 -24 44 -24
33z"/>
<path d="M580 2741 c0 -6 4 -13 10 -16 6 -3 7 1 4 9 -7 18 -14 21 -14 7z"/>
<path d="M1433 2739 c11 -7 23 -7 35 0 14 9 11 10 -18 10 -29 0 -32 -1 -17
-10z"/>
<path d="M760 2541 c0 -6 4 -13 10 -16 6 -3 7 1 4 9 -7 18 -14 21 -14 7z"/>
<path d="M2269 2509 c-14 -14 -19 -30 -17 -52 3 -27 13 -38 72 -74 140 -86
368 -174 571 -220 163 -37 473 -43 669 -14 77 11 149 28 163 36 32 21 28 70
-7 96 -23 17 -29 18 -80 5 -158 -41 -511 -47 -680 -12 -189 38 -336 92 -518
186 -73 39 -137 70 -142 70 -6 0 -19 -9 -31 -21z"/>
<path d="M4485 2470 c10 -11 20 -20 23 -20 3 0 -3 9 -13 20 -10 11 -20 20 -23
20 -3 0 3 -9 13 -20z"/>
<path d="M4565 2390 c10 -11 20 -20 23 -20 3 0 -3 9 -13 20 -10 11 -20 20 -23
20 -3 0 3 -9 13 -20z"/>
<path d="M1945 2381 c43 -20 78 -55 67 -67 -4 -4 -1 -4 7 1 20 11 -60 85 -91
85 -18 0 -14 -4 17 -19z"/>
<path d="M4655 2302 c33 -34 61 -62 63 -62 8 0 -37 49 -78 85 -36 31 -33 26
15 -23z"/>
<path d="M1877 2334 c6 -17 5 -17 -10 -5 -25 20 -21 -3 5 -25 12 -10 18 -13
13 -5 -4 8 -3 16 4 21 9 5 8 10 -4 20 -13 11 -14 10 -8 -6z"/>
<path d="M2080 2280 c19 -16 39 -30 44 -30 5 0 1 -7 -10 -16 -18 -14 -18 -15
4 -4 25 12 46 5 36 -12 -5 -7 -2 -8 5 -4 7 5 20 1 29 -7 9 -8 28 -18 41 -22
16 -5 20 -10 11 -15 -8 -5 7 -13 39 -21 28 -7 51 -16 51 -21 0 -4 -8 -4 -17
-1 -16 6 -16 5 -3 -9 10 -10 28 -14 50 -11 l35 4 -40 -20 c-47 -24 -56 -25
-50 -8 4 9 -16 11 -86 7 -67 -4 -96 -1 -108 8 -14 11 -13 12 8 6 20 -5 23 -3
18 11 -4 9 -7 19 -7 21 0 2 -8 4 -18 4 -18 0 -52 29 -52 44 0 13 -28 36 -45
36 -9 0 -13 5 -10 10 8 12 -15 13 -34 1 -9 -6 -10 -11 -2 -15 6 -4 9 -12 5
-17 -3 -5 -9 -7 -14 -4 -5 3 -11 1 -15 -5 -6 -10 8 -15 30 -10 6 1 5 -4 -2
-11 -10 -10 -15 -9 -28 1 -14 11 -14 15 -1 29 20 22 4 46 -31 46 -19 1 -27 5
-25 15 2 9 -6 6 -22 -9 -26 -25 -34 -37 -17 -26 5 3 12 1 16 -5 3 -5 11 -10
16 -10 6 0 7 4 4 10 -3 6 1 7 10 3 11 -4 13 -8 6 -13 -15 -9 17 -37 109 -96
200 -127 398 -214 680 -297 77 -23 230 -48 251 -42 33 11 52 54 47 107 -3 28
-11 54 -18 58 -8 5 -43 14 -79 20 -188 35 -467 128 -572 192 -25 15 -51 28
-56 28 -5 0 -57 29 -114 65 -57 36 -88 52 -69 35z m-140 -64 c0 -2 -8 -10 -17
-17 -16 -13 -17 -12 -4 4 13 16 21 21 21 13z m155 -90 c12 3 26 1 29 -5 4 -7
1 -9 -8 -5 -8 3 -23 1 -34 -5 -15 -8 -23 -7 -31 3 -9 11 -9 15 1 19 7 2 14 0
16 -4 2 -5 14 -6 27 -3z m10 -55 c-6 -5 -25 10 -25 20 0 5 6 4 14 -3 8 -7 12
-15 11 -17z m352 7 c29 -12 53 -25 53 -30 0 -4 10 -8 23 -8 29 0 99 -25 91
-33 -3 -3 -13 -3 -22 0 -10 4 -13 2 -8 -5 9 -15 5 -15 -28 -2 -14 5 -26 6 -26
1 0 -18 51 -21 85 -5 25 11 39 13 48 6 6 -6 39 -15 71 -21 58 -11 84 -21 54
-21 -15 0 -28 -19 -28 -40 0 -5 15 -5 33 -2 43 8 107 6 118 -5 4 -4 -24 -8
-64 -8 -40 0 -75 -4 -79 -10 -5 -6 -11 -5 -17 4 -6 9 -15 11 -27 6 -32 -14
-68 -15 -91 -3 -13 6 -23 15 -23 19 0 4 10 5 23 2 17 -4 15 -1 -8 12 -17 10
-45 15 -66 13 -29 -3 -35 0 -32 13 3 11 -8 23 -35 37 -22 11 -43 18 -46 15 -3
-4 -6 -1 -6 5 0 8 -24 12 -72 12 -47 1 -82 6 -98 16 -19 11 -20 14 -5 10 11
-3 43 5 70 19 28 13 52 25 55 25 2 0 28 -10 57 -22z m-215 -16 c-21 -7 -13
-20 18 -27 16 -4 33 -11 37 -17 4 -8 0 -9 -13 -4 -10 5 -35 13 -54 18 -19 5
-39 14 -45 20 -7 7 -3 8 13 3 15 -4 24 -2 28 9 3 9 11 13 17 9 8 -5 7 -8 -1
-11z m-73 -18 c14 -12 -19 -1 -35 12 -18 14 -18 14 6 3 14 -6 27 -13 29 -15z
m111 -44 c13 -8 13 -10 -2 -10 -9 0 -20 5 -23 10 -8 13 5 13 25 0z m184 -25
c-10 -8 -23 -15 -28 -15 -6 0 -1 7 10 15 10 8 23 15 28 15 6 0 1 -7 -10 -15z
m-103 -4 c-11 -7 -9 -10 8 -16 13 -4 20 -9 17 -12 -3 -3 -19 0 -36 7 -23 9
-28 15 -18 21 7 5 20 9 28 9 12 0 13 -2 1 -9z m44 -1 c-3 -5 -1 -10 6 -10 7 0
10 -2 7 -5 -8 -9 -38 6 -32 16 3 5 10 9 15 9 6 0 7 -4 4 -10z m534 -33 c34 -9
43 -26 37 -70 -5 -48 -31 -77 -65 -76 -25 1 -25 2 4 9 17 4 23 8 15 9 -13 1
-13 3 -1 10 8 5 14 26 14 49 0 32 3 39 16 36 9 -3 -4 5 -29 17 -35 16 -57 20
-100 15 -38 -3 -49 -2 -35 4 21 10 101 8 144 -3z m-519 -7 c0 -5 -4 -10 -10
-10 -5 0 -10 5 -10 10 0 6 5 10 10 10 6 0 10 -4 10 -10z m85 -19 c-3 -6 3 -15
12 -21 15 -9 14 -10 -6 -4 -14 3 -38 13 -55 20 l-31 13 43 1 c24 0 41 -4 37
-9z m88 -28 c-7 -2 -19 -2 -25 0 -7 3 -2 5 12 5 14 0 19 -2 13 -5z m42 -13
c-27 -7 -27 -8 -6 -9 13 0 22 -4 18 -7 -3 -3 -21 -3 -39 1 -29 7 -30 9 -13 16
11 4 31 7 45 7 23 0 22 -1 -5 -8z m65 0 c0 -5 -7 -10 -16 -10 -8 0 -12 5 -9
10 3 6 10 10 16 10 5 0 9 -4 9 -10z m168 -67 c-10 -2 -26 -2 -35 0 -10 3 -2 5
17 5 19 0 27 -2 18 -5z"/>
<path d="M2428 2063 c7 -3 16 -2 19 1 4 3 -2 6 -13 5 -11 0 -14 -3 -6 -6z"/>
<path d="M2460 2041 c0 -11 13 -15 85 -26 47 -8 42 3 -7 14 -18 5 -43 11 -55
15 -14 4 -23 3 -23 -3z"/>
<path d="M2648 1983 c7 -3 16 -2 19 1 4 3 -2 6 -13 5 -11 0 -14 -3 -6 -6z"/>
<path d="M2948 1837 c-3 -19 -2 -25 4 -19 6 6 8 18 6 28 -3 14 -5 12 -10 -9z"/>
<path d="M4370 2225 c-311 -175 -609 -266 -954 -291 -86 -6 -103 -10 -123 -30
-33 -33 -32 -96 3 -131 26 -26 27 -26 133 -20 140 8 387 51 514 88 190 57 436
168 566 257 64 43 76 60 68 93 -7 25 -70 99 -84 99 -4 0 -60 -29 -123 -65z"/>
<path d="M2063 2241 c1 -16 5 -18 19 -10 23 12 24 20 1 12 -11 -4 -14 -3 -9 5
4 7 3 12 -3 12 -5 0 -9 -9 -8 -19z"/>
<path d="M4730 2226 c0 -2 8 -10 18 -17 15 -13 16 -12 3 4 -13 16 -21 21 -21
13z"/>
<path d="M2156 2154 c-4 -10 -1 -14 6 -12 15 5 23 28 10 28 -5 0 -13 -7 -16
-16z"/>
<path d="M4800 2156 c0 -2 8 -10 18 -17 15 -13 16 -12 3 4 -13 16 -21 21 -21
13z"/>
<path d="M2228 2103 c7 -3 16 -2 19 1 4 3 -2 6 -13 5 -11 0 -14 -3 -6 -6z"/>
<path d="M5100 1856 c0 -2 8 -10 18 -17 15 -13 16 -12 3 4 -13 16 -21 21 -21
13z"/>
<path d="M5643 1819 c-57 -28 -151 -131 -186 -203 -16 -32 -26 -61 -22 -64 3
-4 102 -8 218 -10 117 -2 210 -2 207 1 -3 3 -90 7 -194 10 -103 3 -191 8 -194
11 -3 4 2 6 10 6 11 0 15 9 14 29 -1 17 1 28 5 25 4 -2 24 13 45 33 22 20 32
32 24 26 -12 -9 -15 -7 -16 14 -1 13 0 22 2 20 7 -6 69 56 66 66 -1 4 7 3 18
-3 16 -8 22 -7 31 9 10 15 18 17 40 11 15 -5 30 -6 33 -3 10 10 37 -20 31 -35
-4 -10 0 -12 10 -8 9 3 13 2 10 -4 -3 -5 4 -19 15 -30 11 -11 18 -25 15 -30
-4 -6 1 -7 11 -3 13 5 16 3 11 -10 -4 -11 -2 -14 9 -10 7 3 14 1 14 -5 0 -6
-6 -13 -12 -15 -8 -3 -6 -6 5 -6 31 -2 18 -21 -15 -22 l-33 -2 30 -4 c32 -5
88 -50 79 -65 -6 -9 59 -12 68 -3 14 15 -70 154 -128 212 -85 84 -143 101
-221 62z m-53 -63 c0 -2 -8 -10 -17 -17 -16 -13 -17 -12 -4 4 13 16 21 21 21
13z"/>
<path d="M5453 1796 c-34 -13 -83 -37 -110 -54 -49 -32 -170 -148 -162 -156 2
-2 22 -7 44 -10 24 -4 33 -3 21 2 -17 8 -16 10 10 39 16 16 38 35 49 41 11 6
14 12 8 12 -7 0 -13 5 -13 11 0 6 6 9 14 6 8 -3 34 7 58 22 70 44 98 49 66 11
-7 -8 14 10 47 40 33 30 62 56 64 58 21 11 -47 -4 -96 -22z m-88 -76 c-3 -5
-16 -15 -28 -21 -21 -10 -21 -9 2 10 25 23 36 27 26 11z"/>
<path d="M5935 1762 c32 -31 63 -56 68 -54 21 6 75 -20 107 -53 18 -19 38 -31
43 -28 6 3 7 2 4 -4 -11 -17 51 -65 79 -61 l25 3 -35 41 c-69 81 -232 184
-325 207 -19 5 -12 -6 34 -51z"/>
<path d="M1359 1773 c-13 -16 -12 -17 4 -4 9 7 17 15 17 17 0 8 -8 3 -21 -13z"/>
<path d="M5745 1770 c-3 -6 1 -7 9 -4 18 7 21 14 7 14 -6 0 -13 -4 -16 -10z"/>
<path d="M5196 1757 c3 -10 9 -15 12 -12 3 3 0 11 -7 18 -10 9 -11 8 -5 -6z"/>
<path d="M1296 1709 c-14 -17 -26 -40 -25 -52 1 -18 2 -17 9 7 5 16 19 39 31
52 12 13 20 24 17 24 -4 0 -18 -14 -32 -31z"/>
<path d="M5169 1723 c-13 -16 -12 -17 4 -4 9 7 17 15 17 17 0 8 -8 3 -21 -13z"/>
<path d="M1389 1703 c-13 -16 -12 -17 4 -4 16 13 21 21 13 21 -2 0 -10 -8 -17
-17z"/>
<path d="M0 856 l0 -856 3340 0 3340 0 0 379 c0 247 -4 382 -10 386 -6 4 -8
10 -5 15 3 5 -5 12 -17 16 -13 4 -24 2 -26 -5 -2 -6 -10 -11 -18 -11 -10 0
-14 12 -14 40 0 36 -2 40 -25 40 -21 0 -25 5 -25 30 0 23 -6 33 -24 40 -22 8
-44 45 -33 56 2 3 7 -7 11 -21 4 -14 11 -25 16 -25 6 0 5 8 -2 19 -9 16 -8 27
6 59 10 21 16 50 13 63 -4 20 -4 19 -6 -7 -1 -29 -29 -80 -32 -59 -1 6 -1 60
0 120 1 61 -2 125 -6 143 -5 20 -8 -20 -8 -105 0 -163 -14 -225 -80 -359 -91
-187 -263 -330 -475 -396 -64 -20 -95 -23 -220 -23 -132 1 -152 3 -225 29
-199 68 -377 233 -465 430 -50 111 -63 192 -58 344 5 119 9 148 35 219 16 45
26 80 22 78 -4 -3 -15 -27 -25 -53 -10 -26 -27 -55 -38 -65 -53 -46 -65 -54
-106 -74 -25 -12 -54 -24 -65 -27 -15 -4 -20 -14 -20 -43 0 -31 -4 -39 -21
-41 -20 -3 -34 18 -38 55 -2 19 -16 28 -16 10 0 -9 -4 -17 -10 -17 -5 0 -10 3
-10 8 0 4 -15 17 -33 29 -31 20 -41 21 -267 18 -129 -1 -242 -5 -250 -8 -8 -3
-28 -8 -45 -11 -16 -3 -40 -8 -51 -12 -15 -4 -28 1 -42 16 -20 22 -49 19 -36
-2 5 -8 1 -9 -12 -4 -31 13 -49 14 -55 4 -4 -7 -14 -6 -26 0 -14 8 -23 8 -32
-1 -9 -9 -14 -9 -21 2 -7 12 -11 12 -24 2 -12 -10 -19 -11 -30 -2 -15 13 -36
14 -146 8 -41 -3 -115 -5 -163 -6 -92 -1 -115 -18 -27 -20 28 0 55 -3 58 -5 4
-2 51 -7 105 -11 155 -10 158 -20 11 -36 -139 -15 -461 -18 -586 -5 -69 7 -76
9 -67 24 8 12 28 18 72 20 69 4 96 23 44 33 -18 3 -36 7 -42 9 -14 3 -55 -11
-55 -19 0 -3 -26 -6 -57 -6 -48 0 -58 -3 -61 -18 -2 -10 4 -24 14 -31 16 -12
16 -13 0 -19 -10 -4 -23 -4 -29 0 -11 8 -72 13 -145 12 -18 0 -38 3 -43 7 -18
11 12 24 56 24 37 0 41 2 40 25 -2 33 -22 55 -34 37 -7 -11 -18 -10 -63 3 -31
9 -60 15 -64 14 -37 -6 -93 3 -96 16 -3 13 -7 13 -33 -1 -19 -10 -60 -17 -109
-18 -44 -2 -71 0 -61 4 25 9 6 20 -42 25 -21 2 -39 8 -41 14 -5 16 -59 14 -65
-2 -8 -21 -127 -23 -127 -3 0 12 -15 15 -75 15 -42 0 -96 3 -120 7 -30 4 -45
3 -45 -5 0 -6 -9 -11 -20 -11 -11 0 -20 5 -20 10 0 6 5 10 10 10 6 0 10 4 10
9 0 15 -38 20 -96 12 -39 -6 -59 -4 -72 5 -15 12 -15 13 8 15 l25 1 -25 8
c-14 4 -50 8 -81 9 -59 1 -68 -5 -64 -45 2 -25 -10 -25 -45 -1 l-25 18 35 -6
35 -6 -34 26 c-20 14 -42 23 -52 20 -10 -3 -20 -1 -24 5 -4 7 0 10 11 8 12 -2
19 3 19 15 0 9 -4 16 -10 15 -5 -2 -9 -7 -7 -11 1 -5 -3 -7 -10 -4 -7 2 -12
10 -10 17 2 10 0 11 -11 2 -8 -7 -17 -9 -21 -5 -4 4 -19 8 -34 10 -15 1 -21 0
-14 -3 6 -3 9 -10 6 -15 -3 -6 -12 -5 -22 3 -15 12 -16 11 -3 -4 9 -12 10 -18
2 -18 -6 0 -12 5 -12 10 -1 6 -3 15 -4 20 -1 6 -3 19 -4 29 0 12 -8 20 -18 20
-33 1 -58 7 -83 21 -27 16 -50 14 -63 -3 -6 -8 -7 -6 -4 4 4 12 -5 19 -32 28
-40 12 -253 17 -271 6 -5 -3 -10 -1 -10 4 0 11 24 13 120 13 l45 -1 -50 11
c-69 15 -114 14 -154 -3 -23 -9 -35 -10 -38 -3 -2 6 -44 9 -123 6 -117 -4
-120 -4 -120 17 0 18 -6 21 -40 21 -29 0 -40 -4 -40 -15 0 -8 -4 -15 -9 -15
-5 0 -11 7 -15 15 -3 9 0 15 9 15 8 0 15 4 15 9 0 15 -32 24 -100 27 -36 1
-95 5 -132 9 l-68 6 0 -855z m733 767 c-7 -2 -19 -2 -25 0 -7 3 -2 5 12 5 14
0 19 -2 13 -5z m213 -41 c10 -6 23 -82 24 -139 0 -13 5 -23 11 -23 6 0 40 -12
76 -26 l65 -26 57 56 c54 54 83 67 96 46 4 -6 12 -7 18 -4 7 4 9 3 4 -1 -10
-11 23 -46 36 -38 5 3 7 2 4 -4 -3 -5 12 -27 33 -48 22 -22 40 -46 40 -55 0
-8 -23 -40 -50 -70 -27 -30 -50 -58 -50 -62 0 -3 16 -38 36 -77 l36 -71 79 0
c77 0 79 0 86 -27 8 -33 10 -209 3 -217 -3 -3 -43 -8 -88 -12 -64 -5 -82 -10
-82 -22 0 -9 -10 -46 -22 -84 l-22 -68 47 -48 c26 -26 47 -55 47 -63 0 -22
-151 -169 -173 -169 -10 0 -39 16 -63 36 -28 23 -50 34 -61 31 -10 -3 -54 -19
-98 -35 l-80 -30 -5 -78 -5 -79 -114 -3 c-85 -2 -117 1 -123 10 -4 7 -8 40 -8
73 0 33 -4 65 -8 71 -4 6 -25 17 -47 24 -22 7 -65 25 -95 40 l-55 28 -45 -39
c-25 -21 -49 -39 -55 -39 -16 0 -165 150 -165 165 0 8 20 37 45 65 25 28 45
54 45 58 0 4 -11 43 -23 86 l-22 79 -70 4 c-38 3 -73 10 -78 16 -12 18 -3 188
11 215 11 20 20 22 85 22 l72 0 37 70 38 69 -28 33 c-39 45 -62 80 -62 94 0 6
29 40 65 74 35 35 62 67 59 72 -3 4 1 5 9 2 8 -3 18 0 22 6 5 8 27 -7 64 -43
l56 -56 77 27 78 27 0 72 c0 58 3 74 18 82 20 12 201 14 218 3z m41 -39 c-3
-10 -5 -4 -5 12 0 17 2 24 5 18 2 -7 2 -21 0 -30z m-460 -68 c0 -8 -4 -12 -9
-9 -5 3 -6 10 -3 15 9 13 12 11 12 -6z m1373 -145 c0 -5 -2 -10 -4 -10 -3 0
-8 5 -11 10 -3 6 -1 10 4 10 6 0 11 -4 11 -10z m1740 -400 l0 -180 -25 0 -25
0 0 180 0 180 25 0 25 0 0 -180z m120 155 c0 -20 -5 -25 -24 -25 -14 0 -28 5
-31 10 -12 19 4 40 30 40 20 0 25 -5 25 -25z m-1360 -15 c0 -18 -7 -20 -65
-20 l-65 0 0 -55 0 -55 60 0 c53 0 60 -2 60 -20 0 -18 -7 -20 -60 -20 l-60 0
0 -55 0 -55 70 0 c63 0 70 -2 70 -20 0 -19 -7 -20 -90 -20 l-90 0 0 170 0 170
85 0 c78 0 85 -2 85 -20z m129 -119 c52 -155 42 -158 107 32 33 95 40 107 61
107 12 0 23 -6 22 -12 0 -7 -26 -83 -58 -168 -56 -150 -59 -155 -86 -155 -27
0 -30 5 -80 145 -75 209 -72 192 -39 188 25 -3 30 -12 73 -137z m351 135 c0
-2 29 -78 64 -170 l64 -166 -28 0 c-23 0 -30 7 -44 45 l-18 45 -68 0 -68 0
-14 -42 c-12 -35 -20 -44 -43 -46 -20 -3 -26 0 -23 10 121 326 122 328 151
328 15 0 27 -2 27 -4z m351 -114 c24 -21 32 -38 36 -75 11 -92 -35 -147 -121
-147 -80 1 -116 40 -116 127 1 85 38 122 122 123 38 0 54 -6 79 -28z m139 18
c0 -7 6 -7 19 0 34 18 96 12 117 -11 16 -17 20 -40 22 -125 l4 -104 -26 0 -26
0 0 93 c0 101 -7 117 -51 117 -44 0 -59 -32 -59 -127 0 -82 0 -83 -25 -83
l-25 0 0 125 0 125 25 0 c14 0 25 -5 25 -10z m390 -115 l0 -125 -25 0 -25 0 0
125 0 125 25 0 25 0 0 -125z m110 109 c0 -14 2 -14 22 0 32 23 94 20 118 -4
17 -17 20 -33 20 -125 0 -98 -1 -105 -20 -105 -18 0 -20 7 -20 83 0 92 -15
127 -54 127 -43 0 -61 -34 -65 -126 -3 -75 -5 -84 -22 -84 -18 0 -19 9 -19
125 0 118 1 125 20 125 11 0 20 -7 20 -16z m399 -8 c15 -16 25 -42 28 -70 l6
-46 -87 0 c-47 0 -86 -2 -86 -5 0 -2 5 -16 12 -30 17 -37 63 -45 121 -20 13 6
17 2 17 -18 0 -30 -16 -37 -82 -37 -41 0 -54 5 -77 28 -52 51 -48 159 6 201
38 31 112 29 142 -3z m-1196 -383 c-4 -21 -8 -53 -8 -70 0 -19 -5 -33 -12 -33
-21 0 -24 18 -12 67 16 69 17 73 29 73 7 0 8 -13 3 -37z m57 27 c0 -5 -7 -10
-15 -10 -8 0 -15 5 -15 10 0 6 7 10 15 10 8 0 15 -4 15 -10z m550 -7 c0 -10
-5 -38 -11 -62 -8 -34 -7 -46 3 -52 9 -6 6 -9 -9 -9 -27 0 -28 14 -12 90 10
48 29 69 29 33z m114 3 c-26 -19 -12 -30 39 -31 40 0 42 -2 45 -31 4 -39 -21
-66 -57 -62 -24 3 -26 7 -25 46 1 60 -22 55 -31 -6 -3 -26 -10 -54 -15 -62
-17 -27 -22 -2 -11 50 6 28 9 56 5 61 -3 5 -1 9 4 9 5 0 12 9 15 20 3 13 14
20 28 20 22 0 22 0 3 -14z m-1145 -58 c6 -34 9 -64 6 -66 -7 -7 -25 9 -25 24
0 22 -47 17 -60 -6 -6 -11 -17 -20 -25 -20 -10 0 -1 21 27 65 23 36 47 65 54
65 7 0 16 -26 23 -62z m771 48 c0 -8 6 -17 13 -19 7 -4 6 -6 -4 -6 -20 -1 -32
-72 -15 -83 6 -5 1 -8 -12 -8 -21 0 -22 4 -20 50 2 27 6 50 11 50 4 0 7 7 7
15 0 8 5 15 10 15 6 0 10 -6 10 -14z m-655 -29 c7 -19 -9 -80 -23 -85 -9 -3
-10 9 -6 42 6 40 5 46 -10 40 -8 -3 -21 -24 -26 -45 -15 -54 -34 -51 -25 4 4
23 9 45 11 48 6 11 75 8 79 -4z m153 -20 c4 -37 -24 -69 -57 -65 -22 2 -27 9
-29 38 -4 40 19 63 58 58 19 -2 26 -10 28 -31z m102 6 c0 -39 -11 -73 -22 -73
-6 0 -8 17 -4 45 10 67 -27 55 -40 -13 -4 -18 -12 -32 -19 -32 -9 0 -10 12 -2
50 10 50 10 50 48 50 36 0 39 -2 39 -27z m94 0 c-3 -16 -8 -34 -10 -42 -3 -8
1 -18 8 -23 9 -5 5 -8 -11 -8 -22 0 -23 3 -17 38 3 20 6 43 6 50 0 6 7 12 15
12 12 0 14 -7 9 -27z m107 15 c4 -37 -9 -88 -22 -88 -6 0 -8 16 -3 45 10 68
-26 57 -41 -12 -10 -47 -29 -42 -21 5 3 20 6 43 6 50 0 7 15 12 40 12 25 0 40
-5 41 -12z m95 -3 c8 -20 -13 -45 -37 -45 -11 0 -19 -7 -19 -16 0 -12 6 -15
26 -10 17 5 23 3 19 -4 -16 -26 -75 -3 -75 30 0 46 72 83 86 45z m209 -12 l11
-21 9 21 c19 42 85 29 85 -16 0 -47 -68 -77 -89 -40 -9 17 -10 17 -28 0 -54
-48 -105 13 -60 71 15 19 60 10 72 -15z m418 12 c-11 -8 -24 -30 -27 -50 -9
-48 -30 -46 -22 3 3 20 6 43 6 50 0 7 13 12 32 12 31 0 32 0 11 -15z m-1649
-150 c-16 -13 -17 -16 -4 -25 13 -8 13 -10 -2 -10 -12 0 -18 -13 -23 -48 -3
-26 -10 -54 -15 -62 -17 -27 -22 -2 -11 50 6 28 9 56 5 61 -3 5 -1 9 4 9 5 0
12 9 15 20 3 13 14 20 28 20 22 0 22 0 3 -15z m1656 5 c0 -5 -7 -10 -15 -10
-8 0 -15 5 -15 10 0 6 7 10 15 10 8 0 15 -4 15 -10z m280 0 c0 -5 -7 -10 -15
-10 -8 0 -15 5 -15 10 0 6 7 10 15 10 8 0 15 -4 15 -10z m-1232 -40 c5 -53 15
-54 42 -5 14 25 31 45 38 45 10 0 8 -10 -9 -37 -12 -21 -29 -50 -38 -65 -21
-36 -38 -35 -45 2 -3 17 -9 44 -12 60 -5 25 -10 30 -35 30 -24 0 -29 -4 -29
-24 0 -18 7 -26 23 -29 19 -4 18 -4 -5 -6 -16 0 -28 -5 -28 -10 0 -5 -3 -16
-6 -24 -4 -11 2 -17 23 -20 20 -3 16 -4 -15 -6 -24 0 -41 2 -39 7 3 4 10 33
17 65 l12 58 51 -3 c51 -3 52 -3 55 -38z m166 23 c12 -44 18 -113 8 -113 -5 0
-12 9 -15 20 -3 13 -14 20 -30 20 -17 0 -28 -7 -32 -20 -3 -11 -13 -20 -22
-20 -12 0 -11 7 8 38 12 20 29 49 38 64 18 32 37 36 45 11z m276 3 c0 -8 6
-17 13 -19 7 -4 6 -6 -4 -6 -21 -1 -34 -71 -16 -83 8 -5 4 -8 -11 -8 -21 0
-23 3 -19 48 5 53 15 82 28 82 5 0 9 -6 9 -14z m724 -1 c-4 -8 -1 -15 6 -15 7
0 6 -6 -4 -16 -19 -18 -21 -70 -3 -78 6 -3 1 -4 -13 -3 -23 2 -25 6 -25 49 0
27 3 48 8 48 4 0 7 7 7 15 0 8 7 15 15 15 9 0 12 -6 9 -15z m-2032 -31 c-12
-8 -24 -30 -28 -49 -3 -19 -12 -35 -19 -35 -9 0 -10 11 -3 49 9 44 12 48 40
49 30 1 30 0 10 -14z m94 1 c8 -20 -13 -45 -37 -45 -11 0 -19 -7 -19 -16 0
-12 6 -15 26 -10 17 5 23 3 19 -4 -16 -26 -75 -3 -75 30 0 46 72 83 86 45z
m149 -10 c0 -14 -10 -23 -33 -30 -35 -10 -38 -30 -3 -29 11 0 21 -3 21 -8 0
-5 -15 -8 -32 -6 -28 3 -34 7 -36 31 -4 37 24 69 57 65 18 -2 26 -9 26 -23z
m58 10 c-11 -8 -24 -30 -27 -50 -9 -48 -30 -46 -22 3 3 20 6 43 6 50 0 7 13
12 32 12 31 0 32 0 11 -15z m95 -13 c3 -18 -2 -23 -28 -28 -34 -7 -35 -30 -1
-27 13 2 20 -1 16 -7 -11 -17 -54 -11 -65 9 -12 23 1 66 22 74 27 12 53 2 56
-21z m102 1 c0 -39 -11 -73 -22 -73 -6 0 -8 17 -4 45 10 67 -27 55 -40 -13 -4
-18 -12 -32 -19 -32 -9 0 -10 12 -2 50 10 50 10 50 48 50 36 0 39 -2 39 -27z
m90 18 c0 -5 -9 -7 -20 -4 -14 4 -22 -2 -30 -21 -13 -35 -3 -58 22 -50 14 4
18 2 14 -5 -16 -26 -66 -4 -66 29 0 27 30 60 56 60 13 0 24 -4 24 -9z m86 -6
c8 -20 -13 -45 -37 -45 -11 0 -19 -7 -19 -16 0 -12 6 -15 26 -10 17 5 23 3 19
-4 -16 -26 -75 -3 -75 30 0 46 72 83 86 45z m481 -5 c6 -21 6 -21 20 0 18 25
61 24 77 -3 8 -13 7 -24 -4 -45 -20 -34 -64 -42 -82 -13 -12 19 -12 19 -26 0
-7 -10 -24 -19 -38 -19 -17 0 -24 -5 -24 -20 0 -11 -7 -20 -16 -20 -10 0 -14
6 -10 18 2 9 7 33 11 52 13 68 14 70 52 70 27 0 36 -5 40 -20z m232 13 c-18
-4 -39 -44 -39 -73 0 -12 -7 -20 -16 -20 -10 0 -14 6 -10 18 2 9 7 31 11 48 5
27 10 31 38 31 18 0 25 -2 16 -4z m97 -10 c-2 -10 -7 -32 -11 -49 -6 -29 -9
-32 -43 -30 -30 1 -38 5 -40 24 -6 39 23 72 64 72 29 0 34 -3 30 -17z m99 6
c11 -18 -6 -89 -21 -89 -14 0 -13 20 1 67 6 19 -11 25 -25 9 -6 -8 -15 -27
-19 -42 -4 -15 -13 -30 -20 -32 -13 -4 -11 22 5 79 5 18 69 25 79 8z m85 0 c0
-6 -9 -8 -20 -4 -25 8 -27 -11 -4 -36 23 -26 11 -49 -26 -49 -16 0 -30 5 -30
11 0 6 7 8 16 5 29 -11 36 5 13 30 -18 19 -20 26 -9 39 14 17 60 21 60 4z m90
-4 c20 -24 -6 -75 -41 -82 -16 -3 -31 -14 -34 -24 -11 -33 -28 -22 -21 14 4
17 9 49 13 70 5 34 8 37 38 37 18 0 38 -7 45 -15z m47 -35 c-2 -39 -5 -50 -17
-47 -22 4 -14 97 9 97 5 0 9 -23 8 -50z m71 39 c-10 -5 -22 -28 -28 -49 -13
-48 -36 -55 -26 -9 3 17 6 40 6 50 0 15 7 19 33 19 26 -1 29 -2 15 -11z m102
-1 c0 -7 -3 -30 -7 -51 -6 -37 -7 -38 -42 -35 -32 3 -36 6 -39 34 -2 19 3 38
13 48 19 19 75 22 75 4z m104 -15 c-3 -16 -8 -34 -10 -42 -3 -8 1 -18 8 -23 9
-5 6 -8 -9 -8 -25 0 -28 13 -17 69 4 17 13 31 20 31 10 0 13 -8 8 -27z m104
-6 c4 -37 -24 -69 -57 -65 -22 2 -27 9 -29 38 -4 40 19 63 58 58 19 -2 26 -10
28 -31z m102 6 c0 -39 -11 -73 -22 -73 -6 0 -8 17 -4 45 10 67 -27 55 -40 -13
-4 -18 -12 -32 -19 -32 -9 0 -10 12 -2 50 10 50 10 50 48 50 36 0 39 -2 39
-27z m-1320 -143 c0 -5 -4 -10 -10 -10 -5 0 -10 5 -10 10 0 6 5 10 10 10 6 0
10 -4 10 -10z m370 0 c0 -5 -4 -10 -10 -10 -5 0 -10 5 -10 10 0 6 5 10 10 10
6 0 10 -4 10 -10z m-430 -14 c0 -8 6 -17 13 -19 7 -4 6 -6 -4 -6 -21 -1 -34
-71 -16 -83 8 -5 4 -8 -11 -8 -21 0 -23 3 -19 48 5 53 15 82 28 82 5 0 9 -6 9
-14z m370 0 c0 -8 6 -17 13 -19 7 -4 6 -6 -4 -6 -21 -1 -34 -71 -16 -83 8 -5
4 -8 -11 -8 -21 0 -23 3 -19 48 5 53 15 82 28 82 5 0 9 -6 9 -14z m-495 -41
c0 -14 -10 -23 -32 -30 -43 -14 -29 -32 24 -31 50 1 63 11 39 29 -26 19 -17
51 17 55 15 2 27 -2 27 -8 0 -7 -8 -9 -20 -5 -25 8 -28 -20 -4 -33 9 -5 14
-18 12 -28 -3 -16 -13 -19 -63 -21 -32 -1 -65 3 -72 9 -33 27 1 91 46 86 18
-2 26 -9 26 -23z m171 -20 c-5 -28 -3 -45 3 -45 10 0 14 10 25 61 5 24 9 26
70 26 72 1 78 -5 67 -57 -11 -54 -32 -50 -25 4 5 30 3 46 -4 46 -14 0 -24 -16
-31 -53 -4 -17 -12 -32 -19 -35 -9 -3 -10 9 -5 45 l6 48 -21 -19 c-11 -10 -22
-30 -24 -45 -2 -21 -9 -27 -35 -29 -30 -3 -33 -1 -33 25 0 39 11 73 22 73 6 0
8 -17 4 -45z m269 13 c-13 -65 -15 -68 -50 -68 -32 0 -45 13 -45 46 0 24 39
54 71 54 29 0 30 -1 24 -32z m101 -10 c-5 -29 -3 -44 6 -50 9 -5 6 -8 -9 -8
-18 0 -23 6 -23 28 0 39 11 72 22 72 7 0 8 -16 4 -42z m108 19 c15 -23 -12
-71 -42 -75 -47 -7 -66 34 -36 76 19 27 61 27 78 -1z m101 12 c11 -18 -6 -89
-21 -89 -14 0 -13 20 1 67 6 19 -11 25 -25 9 -6 -8 -15 -27 -19 -42 -4 -15
-13 -30 -20 -32 -13 -4 -11 22 5 79 5 18 69 25 79 8z"/>
<path d="M734 1137 c-220 -73 -267 -360 -81 -501 43 -33 134 -66 181 -66 62 0
145 39 202 94 42 41 56 63 69 110 55 189 -68 362 -265 372 -37 2 -83 -2 -106
-9z"/>
<path d="M2840 995 c-17 -42 -40 -107 -40 -111 0 -2 23 -4 50 -4 28 0 50 3 50
8 0 4 -11 36 -24 72 l-24 65 -12 -30z"/>
<path d="M3094 939 c-12 -14 -19 -36 -19 -64 0 -55 25 -85 72 -85 48 0 73 29
73 85 0 32 -6 51 -20 65 -27 27 -81 26 -106 -1z"/>
<path d="M4150 938 c-11 -12 -20 -25 -20 -30 0 -4 27 -8 60 -8 51 0 60 3 60
18 0 44 -65 58 -100 20z"/>
<path d="M3818 556 c-11 -26 -5 -56 12 -56 15 0 34 46 27 64 -9 23 -26 19 -39
-8z"/>
<path d="M2601 561 c-10 -18 -9 -21 9 -21 22 0 25 7 11 29 -7 11 -11 9 -20 -8z"/>
<path d="M2862 568 c-15 -15 -16 -55 0 -64 15 -9 40 25 36 50 -4 24 -20 30
-36 14z"/>
<path d="M3270 565 c-7 -9 -11 -18 -8 -20 7 -8 38 5 38 15 0 17 -18 19 -30 5z"/>
<path d="M3470 566 c-14 -18 -10 -58 7 -64 15 -4 35 42 27 63 -8 19 -18 19
-34 1z"/>
<path d="M3570 566 c-14 -18 -10 -58 7 -64 15 -4 35 42 27 63 -8 19 -18 19
-34 1z"/>
<path d="M3126 374 c-9 -22 -8 -24 9 -24 8 0 15 9 15 20 0 24 -15 27 -24 4z"/>
<path d="M2180 375 c-7 -9 -11 -18 -8 -20 7 -8 38 5 38 15 0 17 -18 19 -30 5z"/>
<path d="M2320 369 c-10 -18 -9 -20 7 -17 10 2 19 11 21 21 5 24 -15 21 -28
-4z"/>
<path d="M2480 375 c-7 -9 -10 -18 -7 -21 10 -11 37 5 37 21 0 19 -14 19 -30
0z"/>
<path d="M2760 375 c-7 -9 -11 -18 -8 -20 7 -8 38 5 38 15 0 17 -18 19 -30 5z"/>
<path d="M3232 365 c-24 -52 -6 -76 23 -31 15 22 12 56 -4 56 -4 0 -13 -11
-19 -25z"/>
<path d="M3332 378 c-13 -13 -17 -68 -4 -68 17 0 32 25 32 52 0 30 -9 35 -28
16z"/>
<path d="M3562 378 c-17 -21 -19 -68 -4 -68 10 0 32 45 32 65 0 18 -14 19 -28
3z"/>
<path d="M3845 380 c-16 -27 -23 -70 -11 -70 20 0 36 22 36 52 0 28 -13 37
-25 18z"/>
<path d="M4050 371 c-13 -25 -13 -61 1 -61 8 0 39 58 39 75 0 14 -30 3 -40
-14z"/>
<path d="M4262 378 c-15 -15 -16 -55 0 -64 15 -9 40 25 36 50 -4 24 -20 30
-36 14z"/>
<path d="M2863 175 c-3 -9 -3 -19 1 -22 8 -9 37 18 30 28 -8 14 -24 11 -31 -6z"/>
<path d="M3302 178 c-15 -15 -16 -68 -2 -68 6 0 15 12 20 26 18 47 9 69 -18
42z"/>
<path d="M3512 178 c-13 -13 -17 -68 -4 -68 17 0 32 25 32 52 0 30 -9 35 -28
16z"/>
<path d="M5099 1643 c-13 -16 -12 -17 4 -4 9 7 17 15 17 17 0 8 -8 3 -21 -13z"/>
<path d="M1298 1623 c7 -3 16 -2 19 1 4 3 -2 6 -13 5 -11 0 -14 -3 -6 -6z"/>
<path d="M898 1613 c7 -3 16 -2 19 1 4 3 -2 6 -13 5 -11 0 -14 -3 -6 -6z"/>
<path d="M1310 1599 c0 -5 5 -7 10 -4 6 3 10 8 10 11 0 2 -4 4 -10 4 -5 0 -10
-5 -10 -11z"/>
<path d="M5350 1575 c-7 -9 -8 -15 -2 -15 5 0 12 7 16 15 3 8 4 15 2 15 -2 0
-9 -7 -16 -15z"/>
<path d="M5673 1563 c15 -2 37 -2 50 0 12 2 0 4 -28 4 -27 0 -38 -2 -22 -4z"/>
<path d="M5025 1529 c-4 -6 -5 -12 -2 -15 2 -3 7 2 10 11 7 17 1 20 -8 4z"/>
<path d="M5114 1493 c-34 -56 -70 -164 -79 -230 l-7 -52 34 -5 c18 -3 69 -8
113 -11 44 -4 87 -8 96 -11 13 -4 17 9 23 73 3 43 15 114 25 158 11 44 18 82
15 84 -9 9 -107 13 -101 4 4 -6 -4 -8 -21 -5 -21 4 -23 6 -9 11 13 5 7 10 -23
18 l-41 10 -25 -44z m156 3 c0 -2 -7 -9 -15 -16 -13 -11 -14 -10 -9 4 5 14 24
23 24 12z m-46 -78 c-27 -79 -24 -75 -35 -55 -8 13 -14 15 -29 7 -35 -19 -50
-41 -50 -76 0 -21 -4 -33 -10 -29 -18 11 -11 -4 12 -24 11 -11 25 -18 30 -15
4 3 8 0 8 -5 0 -6 -7 -11 -16 -11 -21 0 -74 60 -74 85 0 16 2 17 10 5 7 -12
10 -8 10 15 0 18 3 25 8 18 5 -8 12 -1 21 20 22 49 44 74 65 71 10 -1 15 0 12
4 -5 4 15 17 51 31 1 1 -5 -18 -13 -41z m34 -125 c12 -3 22 -10 22 -15 0 -5
-9 -7 -20 -4 -11 3 -29 9 -40 12 -11 3 -20 10 -20 16 0 6 7 7 18 3 9 -4 27
-10 40 -12z m2 -74 c0 -12 -47 -12 -54 0 -3 4 -3 10 0 13 7 8 54 -3 54 -13z"/>
<path d="M6246 1508 c-45 -10 -65 -23 -24 -16 15 3 26 2 25 -1 -1 -3 1 -7 5
-9 4 -1 21 -15 38 -30 54 -50 101 -235 62 -245 -10 -3 -5 -5 11 -6 23 -1 27 3
27 27 0 59 -64 250 -93 278 -8 7 -25 8 -51 2z"/>
<path d="M5392 1459 c-13 -40 -28 -128 -37 -216 l-7 -61 54 -6 c29 -3 125 -8
214 -11 l160 -5 1 87 c0 73 3 89 18 98 10 5 27 18 37 28 11 10 46 23 79 30 58
10 60 10 87 -16 33 -31 32 -28 39 -126 3 -55 1 -76 -9 -82 -9 -6 -4 -9 16 -9
l29 0 -8 91 c-3 50 -14 120 -23 157 -15 58 -20 67 -42 70 -19 3 -22 1 -13 -10
10 -11 4 -13 -34 -13 -38 0 -47 -4 -54 -22 -8 -21 -37 -43 -58 -43 -6 0 -11
14 -11 30 0 27 3 30 31 30 16 0 28 4 25 9 -3 5 -56 9 -118 10 -62 0 -170 4
-239 7 l-127 7 -10 -34z"/>
<path d="M6100 1441 c0 -6 5 -11 11 -11 5 0 8 -4 5 -9 -4 -5 -1 -32 5 -60 l10
-50 47 -3 c47 -3 47 -3 69 -58 12 -30 26 -56 32 -58 6 -2 0 20 -14 50 -14 29
-25 58 -25 64 0 5 -22 16 -49 23 -42 11 -49 16 -47 35 4 33 14 46 31 39 23 -8
65 6 65 22 0 10 -11 14 -37 13 -21 -1 -53 2 -70 7 -23 5 -33 4 -33 -4z"/>
<path d="M2768 1269 c-17 -18 -17 -19 2 -29 26 -14 27 -14 26 20 -1 34 -4 35
-28 9z"/>
<path d="M3258 1273 c6 -2 18 -2 25 0 6 3 1 5 -13 5 -14 0 -19 -2 -12 -5z"/>
<path d="M5037 1068 c15 -95 42 -178 68 -213 13 -16 31 -20 115 -23 55 -3 100
0 100 4 0 5 -7 50 -15 99 -8 50 -15 114 -15 143 l0 52 -47 2 c-82 3 -97 5
-130 11 -18 4 -46 9 -62 12 l-28 6 14 -93z m210 -120 c-3 -8 -6 -5 -6 6 -1 11
2 17 5 13 3 -3 4 -12 1 -19z"/>
<path d="M6315 1132 c-44 -10 -104 -17 -132 -17 l-53 0 0 -50 c0 -27 -2 -68
-5 -90 -2 -24 1 -18 8 17 16 78 31 90 111 92 36 0 66 5 66 10 0 5 9 1 20 -9
11 -10 20 -27 20 -37 0 -11 5 -16 10 -13 13 8 13 2 -5 -58 -18 -62 -22 -67
-58 -90 -15 -10 -25 -22 -22 -27 3 -5 -9 -11 -27 -13 -24 -3 -18 -4 18 -5 l52
-2 21 49 c11 27 27 73 35 103 14 55 30 159 24 157 -1 -1 -39 -8 -83 -17z"/>
<path d="M5350 1097 c0 -38 20 -190 31 -229 8 -30 15 -38 32 -38 12 0 17 4 12
8 -9 7 -35 69 -35 86 0 4 5 4 11 0 7 -4 10 5 9 27 -4 45 8 76 30 82 39 10 97
-10 128 -44 35 -38 39 -61 17 -112 -8 -20 -15 -39 -15 -42 0 -3 103 -5 229 -5
l230 0 10 53 c21 105 31 171 31 199 0 25 -3 28 -34 28 -19 0 -37 -3 -39 -7 -6
-9 -106 -8 -227 1 -41 3 -153 7 -247 10 l-173 5 0 -22z m700 -105 c0 -15 -2
-15 -10 -2 -13 20 -13 33 0 25 6 -3 10 -14 10 -23z m-650 -42 c0 -5 -5 -10
-11 -10 -5 0 -7 5 -4 10 3 6 8 10 11 10 2 0 4 -4 4 -10z"/>
<path d="M6502 1075 c0 -16 2 -22 5 -12 2 9 2 23 0 30 -3 6 -5 -1 -5 -18z"/>
<path d="M6520 980 c0 -22 16 -43 28 -39 7 3 3 14 -8 29 -13 17 -20 20 -20 10z"/>
<path d="M6107 898 c-3 -18 -8 -41 -12 -50 -4 -10 -3 -18 3 -18 5 0 13 21 17
46 7 52 1 72 -8 22z"/>
<path d="M6620 830 c0 -5 6 -10 14 -10 8 0 18 5 21 10 3 6 -3 10 -14 10 -12 0
-21 -4 -21 -10z"/>
<path d="M5148 777 c8 -9 11 -21 7 -27 -4 -6 -3 -10 2 -8 4 1 45 -35 90 -79
82 -80 156 -127 270 -172 l51 -20 -77 77 c-61 60 -86 94 -115 155 l-36 77 -84
0 c-47 0 -93 3 -103 7 -16 6 -16 5 -5 -10z"/>
<path d="M6119 773 l-45 -4 -40 -81 c-24 -51 -60 -103 -95 -140 -54 -57 -54
-59 -25 -52 79 17 226 112 300 195 77 85 77 89 9 87 -32 -1 -79 -3 -104 -5z
m-19 -87 c0 -2 -8 -10 -17 -17 -16 -13 -17 -12 -4 4 13 16 21 21 21 13z"/>
<path d="M5446 700 c44 -85 99 -149 159 -187 25 -15 45 -31 45 -35 0 -5 26 -8
58 -8 52 0 65 4 114 40 31 22 72 61 91 87 36 50 87 145 87 163 0 7 -99 10
-296 10 l-295 0 37 -70z"/>
</g>
</svg>
